<svg xmlns="http://www.w3.org/2000/svg" fill="none" viewBox="0 0 121 32" height="32" width="121">
<path fill="#3070B7" d="M38.6689 13.919V1.76123H49.4199C51.6357 1.76123 55.2029 2.06087 55.2029 4.95086C55.2029 6.37114 53.9564 7.37343 52.5077 7.73599C54.313 8.27833 55.2029 9.27612 55.2029 10.641C55.2029 13.6209 51.817 13.9055 49.4199 13.9145H38.6689V13.919ZM42.6167 8.7967L43.7448 6.93296C44.0354 6.51047 44.5134 6.25878 45.0242 6.25578H49.4184C50.2035 6.25578 50.8432 5.89622 50.8432 5.28795C50.8432 4.67819 50.2095 4.31264 49.4184 4.31264H42.6152V8.7967H42.6167ZM42.6167 8.7967V13.913L43.7448 12.0463C44.0354 11.6253 44.5134 11.3721 45.0242 11.3691H49.36C50.181 11.3826 50.8312 10.7998 50.8312 10.0896C50.8312 9.378 50.1945 8.80569 49.36 8.80569L42.6167 8.7967ZM64.7463 4.69617L59.4173 13.928H54.7759L62.2069 1.76123H67.2857L74.7092 13.919H70.0724L68.8259 11.7526H61.9462L63.0878 9.88888C63.38 9.46938 63.8564 9.21769 64.3673 9.2117H67.3472L64.7463 4.69617ZM97.0232 4.69617L91.6986 13.928H87.0468L94.4748 1.76123H99.5536L106.976 13.919H102.351L101.103 11.7526H94.2246L95.3527 9.88888C95.6419 9.46938 96.1183 9.21619 96.6277 9.2117H99.612L97.0112 4.69767H97.0232V4.69617ZM81.9005 11.3706C82.8039 11.3706 83.5231 10.9346 83.5231 10.0507V1.76123H87.4528V10.4147C87.4528 13.0381 85.7164 13.9175 83.4437 13.9175H76.8756C76.3647 13.9115 75.8898 13.6598 75.5977 13.2403L74.456 11.3676L81.9005 11.3706ZM114.162 11.3706C115.066 11.3706 115.789 10.9346 115.789 10.0507V1.76123H119.731V10.4147C119.731 13.0381 117.999 13.9175 115.725 13.9175H109.157C108.646 13.9145 108.168 13.6613 107.879 13.2403L106.737 11.3676L114.162 11.3706Z"></path>
<path fill="#3070B7" d="M38.647 17.9658H48.3792V20.9202H42.0179V23.8177H47.7694V26.6148H42.0179V30.1311H38.6455V17.9658H38.647Z"></path>
<path fill="#3070B7" d="M50.6719 17.9658H54.0578V30.1326H50.6719V17.9658Z"></path>
<path fill="#3070B7" d="M56.9814 17.9658H60.1276L65.1346 24.396V17.9658H68.471V30.1326H65.5166L60.3254 23.4597V30.1326H56.9829V17.9658H56.9814Z"></path>
<path fill="#3070B7" d="M70.4014 28.3245L72.2771 26.0832C73.3842 27.0106 74.7791 27.5259 76.2233 27.5439C77.1267 27.5439 77.6136 27.2308 77.6136 26.7094V26.675C77.6136 26.1716 77.2136 25.8914 75.5641 25.5109C72.9722 24.9191 70.9752 24.191 70.9752 21.6875V21.6531C70.9752 19.3953 72.7655 17.7593 75.6855 17.7593C77.7529 17.7593 79.3695 18.3151 80.6894 19.3758L79.0039 21.7564C77.8908 20.9729 76.6773 20.5549 75.5986 20.5549C74.7821 20.5549 74.382 20.9025 74.382 21.3384V21.3729C74.382 21.9302 74.8 22.1714 76.4855 22.555C79.2841 23.1617 81.0205 24.0666 81.0205 26.3454V26.3798C81.0205 28.8623 79.0564 30.341 76.1049 30.341C73.9446 30.3395 71.8951 29.6623 70.4014 28.3245Z"></path>
<path fill="#3070B7" d="M83.3486 17.9658H93.1333V20.8348H86.6866V22.6761H92.5265V25.3354H86.6866V27.268H93.2217V30.1341H83.3486V17.9658Z"></path>
<path fill="#3070B7" d="M95.6363 17.9658H101.389C103.249 17.9658 104.535 18.4527 105.35 19.2857C106.064 19.9809 106.429 20.9202 106.429 22.1188V22.1547C106.429 24.014 105.439 25.247 103.926 25.8897L106.828 30.1311H102.934L100.483 26.447H99.0072V30.1311H95.6348V17.9658H95.6363ZM101.221 23.8072C102.371 23.8072 103.027 23.2499 103.027 22.363V22.3285C103.027 21.3712 102.332 20.8858 101.204 20.8858H98.9967V23.8072H101.221Z"></path>
<path fill="#3070B7" d="M107.506 17.9658H111.278L114.041 25.665L116.798 17.9658H120.5L115.563 30.2195H112.444L107.506 17.9658Z"></path>
<path fill="#3070B7" d="M26.2837 20.0678C26.2837 24.3946 21.4491 24.8081 18.0287 24.8275H14.953V20.9323H21.0701V17.9599H14.953V13.9193H21.7248V10.7776H11.3663V24.835H7.40962V7.16545H18.0347C21.1944 7.16545 26.2897 7.61641 26.2897 11.7978C26.2897 13.8653 24.5174 15.386 22.4529 15.9089C25.0103 16.6984 26.2837 17.9659 26.2837 20.0678ZM16.3748 0.125488C7.60738 0.125488 0.5 7.23287 0.5 16.0002C0.5 24.7676 7.60738 31.875 16.3748 31.875C25.1421 31.875 32.2495 24.7676 32.2495 16.0002C32.2495 7.23437 25.1451 0.128485 16.3792 0.125488H16.3748Z"></path>
</svg>
