<svg width="420" height="349" viewBox="0 0 420 349" fill="none" xmlns="http://www.w3.org/2000/svg">
<rect y="301.252" width="46.993" height="46.993" rx="11.7483" fill="url(#paint0_angular_4254_131246)" style=""></rect>
<rect x="0.734266" y="301.986" width="45.5245" height="45.5245" rx="11.014" stroke="white" stroke-opacity="0.05" style="stroke:white;stroke-opacity:0.05;" stroke-width="1.46853"></rect>
<path d="M32.306 325.237L28.5955 323.745C27.8534 323.447 27.265 322.859 26.9664 322.117L25.4636 318.384L23.9608 322.117C23.6622 322.859 23.0738 323.448 22.3317 323.745L18.6212 325.237H18.5997L22.3102 326.729C23.0523 327.028 23.6407 327.616 23.9393 328.358L25.4421 332.091L26.9449 328.358C27.2435 327.616 27.8319 327.027 28.574 326.729L32.2845 325.237M19.0892 331.601H16.1521M17.6207 330.133V333.07M16.6416 316.426V320.342M14.6836 318.384H18.5997" stroke="white" style="stroke:white;stroke-opacity:1;" stroke-width="2.2028" stroke-linecap="round" stroke-linejoin="round"></path>
<path d="M69.4252 18V6.97741H65.4241V5.58345H74.9753V6.97741H70.9741V18H69.4252ZM78.9937 18.1635C76.8855 18.1635 75.8013 16.9244 75.8013 14.7302V8.72416H77.2985V14.3688C77.2985 16.0381 77.9009 16.8384 79.3809 16.8384C81.0157 16.8384 81.8848 15.8402 81.8848 14.2139V8.72416H83.382V18H81.8848V16.6146H81.7471C81.2911 17.6042 80.3532 18.1635 78.9937 18.1635ZM86.1786 18V8.72416H87.6758V10.1009H87.8134C88.1662 9.12858 89.0353 8.56067 90.2916 8.56067C90.5755 8.56067 90.8939 8.59509 91.0402 8.6209V10.0751C90.7304 10.0235 90.4465 9.98905 90.1195 9.98905C88.6911 9.98905 87.6758 10.8925 87.6758 12.2521V18H86.1786ZM93.6818 6.93438C93.1139 6.93438 92.6493 6.46973 92.6493 5.90182C92.6493 5.33391 93.1139 4.86926 93.6818 4.86926C94.2497 4.86926 94.7144 5.33391 94.7144 5.90182C94.7144 6.46973 94.2497 6.93438 93.6818 6.93438ZM92.9246 18V8.72416H94.4218V18H92.9246ZM97.2442 18V8.72416H98.7414V10.1181H98.8791C99.3437 9.13718 100.213 8.56067 101.581 8.56067C103.663 8.56067 104.825 9.79114 104.825 11.9939V18H103.328V12.3553C103.328 10.686 102.639 9.88579 101.159 9.88579C99.6793 9.88579 98.7414 10.8839 98.7414 12.5102V18H97.2442ZM111.356 21.2698C109.119 21.2698 107.69 20.263 107.458 18.74L107.475 18.7314H109.024L109.033 18.74C109.196 19.4456 110.022 19.9447 111.356 19.9447C113.017 19.9447 114.006 19.1616 114.006 17.7935V15.9177H113.868C113.283 16.9416 112.234 17.5181 110.96 17.5181C108.559 17.5181 107.071 15.6595 107.071 13.0609V13.0437C107.071 10.4451 108.568 8.56067 110.994 8.56067C112.302 8.56067 113.318 9.20602 113.886 10.2558H113.989V8.72416H115.486V17.8709C115.486 19.9447 113.886 21.2698 111.356 21.2698ZM111.287 16.193C113.008 16.193 114.041 14.9023 114.041 13.0609V13.0437C114.041 11.2023 112.999 9.88579 111.287 9.88579C109.566 9.88579 108.602 11.2023 108.602 13.0437V13.0609C108.602 14.9023 109.566 16.193 111.287 16.193ZM122.193 12L124.939 4.55007H125.858L128.605 12H127.629L126.88 9.86776H123.917L123.168 12H122.193ZM125.357 5.753L124.191 9.07785H126.607L125.44 5.753H125.357ZM130.228 12V4.55007H131.157V12H130.228Z" fill="white" fill-opacity="0.6" style="fill:white;fill-opacity:0.6;"></path>
<rect x="64.6152" y="29.874" width="355.385" height="288.496" rx="11.7483" fill="#1C1D21" style="fill:#1C1D21;fill:color(display-p3 0.1098 0.1137 0.1294);fill-opacity:1;"></rect>
<path d="M84.5673 54.8484L84.3565 49.1363H86.2237L86.0129 54.8484H84.5673ZM88.2816 54.8484L88.0708 49.1363H89.938L89.7272 54.8484H88.2816ZM99.9869 63.9636C95.8308 63.9636 93.3412 61.0122 93.3412 56.3843V56.3643C93.3412 51.7163 95.891 48.795 99.9869 48.795C104.103 48.795 106.633 51.7264 106.633 56.3643V56.3843C106.633 61.0022 104.123 63.9636 99.9869 63.9636ZM99.9869 62.2972C102.958 62.2972 104.785 59.9682 104.785 56.3843V56.3643C104.785 52.7503 102.948 50.4615 99.9869 50.4615C97.0355 50.4615 95.1883 52.7503 95.1883 56.3643V56.3843C95.1883 59.9682 96.9752 62.2972 99.9869 62.2972ZM109.644 63.6223V48.5039H111.391V54.4268H111.552C112.094 53.2824 113.108 52.6098 114.704 52.6098C117.133 52.6098 118.488 54.0453 118.488 56.6152V63.6223H116.742V57.0369C116.742 55.0893 115.938 54.1557 114.212 54.1557C112.485 54.1557 111.391 55.3202 111.391 57.2176V63.6223H109.644ZM127.433 63.6223V52.8005H129.18V54.4268H129.34C129.882 53.2824 130.896 52.6098 132.492 52.6098C134.922 52.6098 136.277 54.0453 136.277 56.6152V63.6223H134.53V57.0369C134.53 55.0893 133.727 54.1557 132.001 54.1557C130.274 54.1557 129.18 55.3202 129.18 57.2176V63.6223H127.433ZM143.886 63.8131C140.805 63.8131 138.897 61.6848 138.897 58.2214V58.2014C138.897 54.7279 140.805 52.6098 143.886 52.6098C146.968 52.6098 148.876 54.7279 148.876 58.2014V58.2214C148.876 61.6848 146.968 63.8131 143.886 63.8131ZM143.886 62.2671C145.934 62.2671 147.089 60.7713 147.089 58.2214V58.2014C147.089 55.6415 145.934 54.1557 143.886 54.1557C141.839 54.1557 140.684 55.6415 140.684 58.2014V58.2214C140.684 60.7713 141.839 62.2671 143.886 62.2671ZM152.319 58.8037L152.148 49.1263H154.156L153.985 58.8037H152.319ZM153.162 63.803C152.349 63.803 151.767 63.2208 151.767 62.4076C151.767 61.5844 152.349 61.0022 153.162 61.0022C153.975 61.0022 154.548 61.5844 154.548 62.4076C154.548 63.2208 153.975 63.803 153.162 63.803ZM163.994 63.6223V49.1363H165.801V61.996H172.788V63.6223H163.994ZM179.374 63.8131C176.282 63.8131 174.414 61.6447 174.414 58.2516V58.2415C174.414 54.8986 176.322 52.6098 179.263 52.6098C182.205 52.6098 183.991 54.7982 183.991 58.0307V58.7133H176.201C176.252 60.952 177.486 62.257 179.414 62.257C180.879 62.257 181.783 61.5644 182.074 60.9118L182.114 60.8215H183.861L183.841 60.9018C183.469 62.3675 181.923 63.8131 179.374 63.8131ZM179.253 54.1658C177.647 54.1658 176.422 55.26 176.231 57.318H182.215C182.034 55.1797 180.849 54.1658 179.253 54.1658ZM190.547 63.7026C188.318 63.7026 187.385 62.8794 187.385 60.8115V54.2461H185.678V52.8005H187.385V49.9997H189.192V52.8005H191.561V54.2461H189.192V60.3697C189.192 61.6447 189.633 62.1567 190.758 62.1567C191.069 62.1567 191.239 62.1466 191.561 62.1165V63.6022C191.219 63.6625 190.888 63.7026 190.547 63.7026ZM194.873 54.8484L194.663 49.1363H196.53L196.319 54.8484H194.873ZM203.989 63.8131C201.579 63.8131 199.923 62.6486 199.722 60.8616H201.509C201.8 61.7651 202.664 62.3574 204.049 62.3574C205.505 62.3574 206.539 61.6648 206.539 60.6809V60.6609C206.539 59.928 205.986 59.4161 204.651 59.0948L202.975 58.6933C200.947 58.2114 200.033 57.328 200.033 55.772V55.7619C200.033 53.965 201.76 52.6098 204.059 52.6098C206.328 52.6098 207.904 53.7441 208.145 55.511H206.428C206.197 54.6577 205.354 54.0654 204.049 54.0654C202.764 54.0654 201.82 54.7279 201.82 55.6816V55.7017C201.82 56.4345 202.362 56.8963 203.637 57.2075L205.304 57.6091C207.342 58.101 208.325 58.9844 208.325 60.5304V60.5504C208.325 62.4779 206.448 63.8131 203.989 63.8131ZM217.541 63.6223V54.2461H215.744V52.8005H217.541V51.5958C217.541 49.4375 218.625 48.4035 220.683 48.4035C221.105 48.4035 221.486 48.4336 221.848 48.5039V49.8993C221.637 49.8591 221.346 49.8491 221.035 49.8491C219.79 49.8491 219.288 50.4615 219.288 51.646V52.8005H221.747V54.2461H219.288V63.6223H217.541ZM225.191 50.7124C224.528 50.7124 223.986 50.1703 223.986 49.5078C223.986 48.8452 224.528 48.3031 225.191 48.3031C225.853 48.3031 226.395 48.8452 226.395 49.5078C226.395 50.1703 225.853 50.7124 225.191 50.7124ZM224.307 63.6223V52.8005H226.054V63.6223H224.307ZM228.483 63.6223L232.188 58.2114L228.443 52.8005H230.501L233.071 56.8261H233.232L235.772 52.8005H237.729L234.055 58.1411L237.779 63.6223H235.731L233.171 59.5365H233.011L230.441 63.6223H228.483ZM249.756 63.7026C247.527 63.7026 246.593 62.8794 246.593 60.8115V54.2461H244.887V52.8005H246.593V49.9997H248.4V52.8005H250.769V54.2461H248.4V60.3697C248.4 61.6447 248.842 62.1567 249.966 62.1567C250.278 62.1567 250.448 62.1466 250.769 62.1165V63.6022C250.428 63.6625 250.097 63.7026 249.756 63.7026ZM253.48 63.6223V48.5039H255.227V54.4268H255.387C255.929 53.2824 256.943 52.6098 258.539 52.6098C260.969 52.6098 262.324 54.0453 262.324 56.6152V63.6223H260.577V57.0369C260.577 55.0893 259.774 54.1557 258.048 54.1557C256.321 54.1557 255.227 55.3202 255.227 57.2176V63.6223H253.48ZM268.458 63.8131C266.4 63.8131 264.844 62.5682 264.844 60.6006V60.5806C264.844 58.6531 266.269 57.5388 268.789 57.3882L271.891 57.1975V56.2137C271.891 54.8785 271.078 54.1557 269.462 54.1557C268.167 54.1557 267.313 54.6376 267.032 55.4809L267.022 55.511H265.276L265.286 55.4507C265.567 53.7542 267.213 52.6098 269.522 52.6098C272.162 52.6098 273.638 53.965 273.638 56.2137V63.6223H271.891V62.0261H271.73C271.048 63.1806 269.913 63.8131 268.458 63.8131ZM266.631 60.5605C266.631 61.6547 267.564 62.2972 268.819 62.2972C270.596 62.2972 271.891 61.1327 271.891 59.5867V58.6029L269 58.7836C267.354 58.884 266.631 59.4663 266.631 60.5404V60.5605ZM280.675 63.7026C278.446 63.7026 277.513 62.8794 277.513 60.8115V54.2461H275.806V52.8005H277.513V49.9997H279.32V52.8005H281.689V54.2461H279.32V60.3697C279.32 61.6447 279.761 62.1567 280.886 62.1567C281.197 62.1567 281.368 62.1466 281.689 62.1165V63.6022C281.348 63.6625 281.016 63.7026 280.675 63.7026ZM294.508 63.8131C291.477 63.8131 289.539 61.6146 289.539 58.1813V58.1612C289.539 54.7982 291.467 52.6098 294.498 52.6098C297.129 52.6098 298.705 54.1256 299.026 56.0531L299.036 56.1133H297.299L297.289 56.0832C297.018 55.0191 296.054 54.1557 294.498 54.1557C292.551 54.1557 291.326 55.7218 291.326 58.1612V58.1813C291.326 60.6709 292.571 62.2671 294.498 62.2671C295.954 62.2671 296.878 61.6246 297.279 60.4199L297.299 60.3597L299.026 60.3497L299.006 60.4601C298.564 62.4177 297.109 63.8131 294.508 63.8131ZM301.586 63.6223V52.8005H303.333V54.4067H303.493C303.905 53.2723 304.919 52.6098 306.384 52.6098C306.716 52.6098 307.087 52.6499 307.258 52.68V54.3766C306.896 54.3164 306.565 54.2762 306.184 54.2762C304.517 54.2762 303.333 55.3303 303.333 56.9164V63.6223H301.586ZM312.388 63.8131C310.33 63.8131 308.774 62.5682 308.774 60.6006V60.5806C308.774 58.6531 310.199 57.5388 312.719 57.3882L315.821 57.1975V56.2137C315.821 54.8785 315.008 54.1557 313.391 54.1557C312.096 54.1557 311.243 54.6376 310.962 55.4809L310.952 55.511H309.205L309.215 55.4507C309.496 53.7542 311.143 52.6098 313.452 52.6098C316.092 52.6098 317.568 53.965 317.568 56.2137V63.6223H315.821V62.0261H315.66C314.978 63.1806 313.843 63.8131 312.388 63.8131ZM310.56 60.5605C310.56 61.6547 311.494 62.2972 312.749 62.2972C314.526 62.2972 315.821 61.1327 315.821 59.5867V58.6029L312.93 58.7836C311.283 58.884 310.56 59.4663 310.56 60.5404V60.5605ZM324.474 63.8131C322.065 63.8131 320.409 62.6486 320.208 60.8616H321.995C322.286 61.7651 323.149 62.3574 324.534 62.3574C325.99 62.3574 327.024 61.6648 327.024 60.6809V60.6609C327.024 59.928 326.472 59.4161 325.137 59.0948L323.46 58.6933C321.432 58.2114 320.519 57.328 320.519 55.772V55.7619C320.519 53.965 322.246 52.6098 324.545 52.6098C326.813 52.6098 328.389 53.7441 328.63 55.511H326.914C326.683 54.6577 325.84 54.0654 324.534 54.0654C323.25 54.0654 322.306 54.7279 322.306 55.6816V55.7017C322.306 56.4345 322.848 56.8963 324.123 57.2075L325.789 57.6091C327.827 58.101 328.811 58.9844 328.811 60.5304V60.5504C328.811 62.4779 326.934 63.8131 324.474 63.8131ZM331.622 63.6223V48.5039H333.369V54.4268H333.529C334.071 53.2824 335.085 52.6098 336.681 52.6098C339.111 52.6098 340.466 54.0453 340.466 56.6152V63.6223H338.719V57.0369C338.719 55.0893 337.916 54.1557 336.19 54.1557C334.463 54.1557 333.369 55.3202 333.369 57.2176V63.6223H331.622ZM345.054 63.7227C344.341 63.7227 343.749 63.1304 343.749 62.4177C343.749 61.6949 344.341 61.1126 345.054 61.1126C345.777 61.1126 346.359 61.6949 346.359 62.4177C346.359 63.1304 345.777 63.7227 345.054 63.7227ZM84.0854 92.6223V78.1363H92.8794V79.7626H85.8924V84.7419H92.3072V86.3481H85.8924V92.6223H84.0854ZM96.5536 79.7124C95.891 79.7124 95.3489 79.1703 95.3489 78.5078C95.3489 77.8452 95.891 77.3031 96.5536 77.3031C97.2162 77.3031 97.7582 77.8452 97.7582 78.5078C97.7582 79.1703 97.2162 79.7124 96.5536 79.7124ZM95.6702 92.6223V81.8005H97.4169V92.6223H95.6702ZM100.71 92.6223V81.8005H102.456V83.4067H102.617C103.029 82.2723 104.043 81.6098 105.508 81.6098C105.839 81.6098 106.211 81.6499 106.382 81.68V83.3766C106.02 83.3164 105.689 83.2762 105.307 83.2762C103.641 83.2762 102.456 84.3303 102.456 85.9164V92.6223H100.71ZM112.053 92.8131C109.644 92.8131 107.988 91.6486 107.787 89.8616H109.574C109.865 90.7651 110.728 91.3574 112.114 91.3574C113.569 91.3574 114.603 90.6648 114.603 89.6809V89.6609C114.603 88.928 114.051 88.4161 112.716 88.0948L111.04 87.6933C109.012 87.2114 108.098 86.328 108.098 84.772V84.7619C108.098 82.965 109.825 81.6098 112.124 81.6098C114.393 81.6098 115.969 82.7441 116.21 84.511H114.493C114.262 83.6577 113.419 83.0654 112.114 83.0654C110.829 83.0654 109.885 83.7279 109.885 84.6816V84.7017C109.885 85.4345 110.427 85.8963 111.702 86.2075L113.369 86.6091C115.406 87.101 116.39 87.9844 116.39 89.5304V89.5504C116.39 91.4779 114.513 92.8131 112.053 92.8131ZM122.845 92.7026C120.617 92.7026 119.683 91.8794 119.683 89.8115V83.2461H117.976V81.8005H119.683V78.9997H121.49V81.8005H123.859V83.2461H121.49V89.3697C121.49 90.6447 121.932 91.1567 123.056 91.1567C123.367 91.1567 123.538 91.1466 123.859 91.1165V92.6022C123.518 92.6625 123.186 92.7026 122.845 92.7026ZM126.027 96.3065L126.901 90.5945H128.899L127.322 96.3065H126.027ZM142.2 92.7026C139.971 92.7026 139.038 91.8794 139.038 89.8115V83.2461H137.331V81.8005H139.038V78.9997H140.845V81.8005H143.214V83.2461H140.845V89.3697C140.845 90.6447 141.286 91.1567 142.411 91.1567C142.722 91.1567 142.893 91.1466 143.214 91.1165V92.6022C142.873 92.6625 142.541 92.7026 142.2 92.7026ZM145.824 92.6223V81.8005H147.571V83.4067H147.731C148.143 82.2723 149.157 81.6098 150.623 81.6098C150.954 81.6098 151.325 81.6499 151.496 81.68V83.3766C151.134 83.3164 150.803 83.2762 150.422 83.2762C148.755 83.2762 147.571 84.3303 147.571 85.9164V92.6223H145.824ZM154.678 96.417C154.447 96.417 154.146 96.3969 153.905 96.3567V94.9212C154.116 94.9614 154.387 94.9714 154.628 94.9714C155.622 94.9714 156.224 94.5196 156.616 93.2748L156.816 92.6324L152.811 81.8005H154.678L157.65 90.7049H157.81L160.772 81.8005H162.609L158.382 93.2849C157.489 95.7143 156.596 96.417 154.678 96.417ZM170.7 92.6223V81.8005H172.447V83.4067H172.607C173.019 82.2723 174.033 81.6098 175.499 81.6098C175.83 81.6098 176.201 81.6499 176.372 81.68V83.3766C176.011 83.3164 175.679 83.2762 175.298 83.2762C173.631 83.2762 172.447 84.3303 172.447 85.9164V92.6223H170.7ZM182.646 92.8131C179.554 92.8131 177.687 90.6447 177.687 87.2516V87.2415C177.687 83.8986 179.594 81.6098 182.536 81.6098C185.477 81.6098 187.264 83.7982 187.264 87.0307V87.7133H179.474C179.524 89.952 180.759 91.257 182.686 91.257C184.152 91.257 185.056 90.5644 185.347 89.9118L185.387 89.8215H187.134L187.114 89.9018C186.742 91.3675 185.196 92.8131 182.646 92.8131ZM182.526 83.1658C180.92 83.1658 179.695 84.26 179.504 86.318H185.487C185.307 84.1797 184.122 83.1658 182.526 83.1658ZM190.697 92.6223V83.2461H188.9V81.8005H190.697V80.5958C190.697 78.4375 191.782 77.4035 193.839 77.4035C194.261 77.4035 194.643 77.4336 195.004 77.5039V78.8993C194.793 78.8591 194.502 78.8491 194.191 78.8491C192.946 78.8491 192.444 79.4615 192.444 80.646V81.8005H194.904V83.2461H192.444V92.6223H190.697ZM197.423 92.6223V81.8005H199.17V83.4067H199.331C199.742 82.2723 200.756 81.6098 202.222 81.6098C202.553 81.6098 202.925 81.6499 203.095 81.68V83.3766C202.734 83.3164 202.403 83.2762 202.021 83.2762C200.355 83.2762 199.17 84.3303 199.17 85.9164V92.6223H197.423ZM209.369 92.8131C206.278 92.8131 204.41 90.6447 204.41 87.2516V87.2415C204.41 83.8986 206.318 81.6098 209.259 81.6098C212.2 81.6098 213.987 83.7982 213.987 87.0307V87.7133H206.197C206.247 89.952 207.482 91.257 209.41 91.257C210.875 91.257 211.779 90.5644 212.07 89.9118L212.11 89.8215H213.857L213.837 89.9018C213.465 91.3675 211.919 92.8131 209.369 92.8131ZM209.249 83.1658C207.643 83.1658 206.418 84.26 206.227 86.318H212.21C212.03 84.1797 210.845 83.1658 209.249 83.1658ZM220.412 92.8131C218.003 92.8131 216.346 91.6486 216.146 89.8616H217.933C218.224 90.7651 219.087 91.3574 220.472 91.3574C221.928 91.3574 222.962 90.6648 222.962 89.6809V89.6609C222.962 88.928 222.41 88.4161 221.075 88.0948L219.398 87.6933C217.37 87.2114 216.457 86.328 216.457 84.772V84.7619C216.457 82.965 218.184 81.6098 220.482 81.6098C222.751 81.6098 224.327 82.7441 224.568 84.511H222.852C222.621 83.6577 221.777 83.0654 220.472 83.0654C219.187 83.0654 218.244 83.7279 218.244 84.6816V84.7017C218.244 85.4345 218.786 85.8963 220.061 86.2075L221.727 86.6091C223.765 87.101 224.749 87.9844 224.749 89.5304V89.5504C224.749 91.4779 222.872 92.8131 220.412 92.8131ZM227.56 92.6223V77.5039H229.307V83.4268H229.467C230.009 82.2824 231.023 81.6098 232.619 81.6098C235.049 81.6098 236.404 83.0453 236.404 85.6152V92.6223H234.657V86.0369C234.657 84.0893 233.854 83.1557 232.127 83.1557C230.401 83.1557 229.307 84.3202 229.307 86.2176V92.6223H227.56ZM240.49 79.7124C239.827 79.7124 239.285 79.1703 239.285 78.5078C239.285 77.8452 239.827 77.3031 240.49 77.3031C241.152 77.3031 241.694 77.8452 241.694 78.5078C241.694 79.1703 241.152 79.7124 240.49 79.7124ZM239.606 92.6223V81.8005H241.353V92.6223H239.606ZM244.646 92.6223V81.8005H246.393V83.4268H246.553C247.095 82.2824 248.109 81.6098 249.705 81.6098C252.135 81.6098 253.49 83.0453 253.49 85.6152V92.6223H251.743V86.0369C251.743 84.0893 250.94 83.1557 249.213 83.1557C247.487 83.1557 246.393 84.3202 246.393 86.2176V92.6223H244.646ZM261.109 96.4371C258.499 96.4371 256.833 95.2625 256.562 93.4857L256.582 93.4756H258.389L258.399 93.4857C258.59 94.3088 259.553 94.8911 261.109 94.8911C263.047 94.8911 264.201 93.9776 264.201 92.3814V90.1929H264.041C263.358 91.3875 262.133 92.0601 260.648 92.0601C257.847 92.0601 256.11 89.8918 256.11 86.86V86.84C256.11 83.8083 257.857 81.6098 260.688 81.6098C262.214 81.6098 263.398 82.3627 264.061 83.5874H264.181V81.8005H265.928V92.4717C265.928 94.8911 264.061 96.4371 261.109 96.4371ZM261.029 90.5142C263.037 90.5142 264.242 89.0084 264.242 86.86V86.84C264.242 84.6917 263.027 83.1557 261.029 83.1557C259.021 83.1557 257.897 84.6917 257.897 86.84V86.86C257.897 89.0084 259.021 90.5142 261.029 90.5142ZM275.887 96.417C275.656 96.417 275.354 96.3969 275.114 96.3567V94.9212C275.324 94.9614 275.595 94.9714 275.836 94.9714C276.83 94.9714 277.432 94.5196 277.824 93.2748L278.025 92.6324L274.019 81.8005H275.887L278.858 90.7049H279.019L281.98 81.8005H283.817L279.591 93.2849C278.697 95.7143 277.804 96.417 275.887 96.417ZM290.172 92.8131C287.09 92.8131 285.182 90.6848 285.182 87.2214V87.2014C285.182 83.7279 287.09 81.6098 290.172 81.6098C293.254 81.6098 295.161 83.7279 295.161 87.2014V87.2214C295.161 90.6848 293.254 92.8131 290.172 92.8131ZM290.172 91.2671C292.22 91.2671 293.374 89.7713 293.374 87.2214V87.2014C293.374 84.6415 292.22 83.1557 290.172 83.1557C288.124 83.1557 286.969 84.6415 286.969 87.2014V87.2214C286.969 89.7713 288.124 91.2671 290.172 91.2671ZM301.495 92.8131C299.036 92.8131 297.771 91.3675 297.771 88.8076V81.8005H299.518V88.3859C299.518 90.3335 300.221 91.2671 301.947 91.2671C303.855 91.2671 304.868 90.1026 304.868 88.2052V81.8005H306.615V92.6223H304.868V91.0061H304.708C304.176 92.1605 303.082 92.8131 301.495 92.8131ZM309.878 92.6223V81.8005H311.625V83.4067H311.785C312.197 82.2723 313.211 81.6098 314.676 81.6098C315.008 81.6098 315.379 81.6499 315.55 81.68V83.3766C315.188 83.3164 314.857 83.2762 314.476 83.2762C312.809 83.2762 311.625 84.3303 311.625 85.9164V92.6223H309.878ZM328.871 92.8131C327.365 92.8131 326.161 92.1003 325.498 90.8956H325.338V92.6223H323.591V77.5039H325.338V83.5071H325.498C326.09 82.3526 327.385 81.6098 328.871 81.6098C331.622 81.6098 333.409 83.8083 333.409 87.2014V87.2214C333.409 90.5945 331.612 92.8131 328.871 92.8131ZM328.47 91.2671C330.447 91.2671 331.622 89.7412 331.622 87.2214V87.2014C331.622 84.6816 330.447 83.1557 328.47 83.1557C326.502 83.1557 325.297 84.7017 325.297 87.2014V87.2214C325.297 89.7211 326.502 91.2671 328.47 91.2671ZM336.119 92.6223V81.8005H337.866V83.4067H338.027C338.438 82.2723 339.452 81.6098 340.918 81.6098C341.249 81.6098 341.62 81.6499 341.791 81.68V83.3766C341.43 83.3164 341.098 83.2762 340.717 83.2762C339.051 83.2762 337.866 84.3303 337.866 85.9164V92.6223H336.119ZM348.096 92.8131C345.014 92.8131 343.106 90.6848 343.106 87.2214V87.2014C343.106 83.7279 345.014 81.6098 348.096 81.6098C351.177 81.6098 353.085 83.7279 353.085 87.2014V87.2214C353.085 90.6848 351.177 92.8131 348.096 92.8131ZM348.096 91.2671C350.143 91.2671 351.298 89.7713 351.298 87.2214V87.2014C351.298 84.6415 350.143 83.1557 348.096 83.1557C346.048 83.1557 344.893 84.6415 344.893 87.2014V87.2214C344.893 89.7713 346.048 91.2671 348.096 91.2671ZM357.482 92.6223L354.45 81.8005H356.197L358.325 90.4539H358.486L360.905 81.8005H362.561L364.981 90.4539H365.141L367.27 81.8005H369.006L365.975 92.6223H364.218L361.798 84.25H361.638L359.229 92.6223H357.482ZM374.728 92.8131C372.319 92.8131 370.663 91.6486 370.462 89.8616H372.249C372.54 90.7651 373.403 91.3574 374.789 91.3574C376.244 91.3574 377.278 90.6648 377.278 89.6809V89.6609C377.278 88.928 376.726 88.4161 375.391 88.0948L373.715 87.6933C371.687 87.2114 370.773 86.328 370.773 84.772V84.7619C370.773 82.965 372.5 81.6098 374.799 81.6098C377.067 81.6098 378.644 82.7441 378.884 84.511H377.168C376.937 83.6577 376.094 83.0654 374.789 83.0654C373.504 83.0654 372.56 83.7279 372.56 84.6816V84.7017C372.56 85.4345 373.102 85.8963 374.377 86.2075L376.044 86.6091C378.081 87.101 379.065 87.9844 379.065 89.5304V89.5504C379.065 91.4779 377.188 92.8131 374.728 92.8131ZM386.193 92.8131C383.101 92.8131 381.234 90.6447 381.234 87.2516V87.2415C381.234 83.8986 383.141 81.6098 386.082 81.6098C389.024 81.6098 390.811 83.7982 390.811 87.0307V87.7133H383.02C383.071 89.952 384.305 91.257 386.233 91.257C387.699 91.257 388.602 90.5644 388.893 89.9118L388.933 89.8215H390.68L390.66 89.9018C390.289 91.3675 388.743 92.8131 386.193 92.8131ZM386.072 83.1658C384.466 83.1658 383.241 84.26 383.051 86.318H389.034C388.853 84.1797 387.668 83.1658 386.072 83.1658ZM393.521 92.6223V81.8005H395.268V83.4067H395.428C395.84 82.2723 396.854 81.6098 398.32 81.6098C398.651 81.6098 399.022 81.6499 399.193 81.68V83.3766C398.832 83.3164 398.5 83.2762 398.119 83.2762C396.452 83.2762 395.268 84.3303 395.268 85.9164V92.6223H393.521ZM86.836 122.813C84.7781 122.813 83.2221 121.568 83.2221 119.601V119.581C83.2221 117.653 84.6476 116.539 87.1673 116.388L90.2693 116.197V115.214C90.2693 113.879 89.4562 113.156 87.8399 113.156C86.5449 113.156 85.6916 113.638 85.4105 114.481L85.4005 114.511H83.6538L83.6638 114.451C83.9449 112.754 85.5912 111.61 87.9002 111.61C90.5404 111.61 92.0161 112.965 92.0161 115.214V122.622H90.2693V121.026H90.1087C89.4261 122.181 88.2917 122.813 86.836 122.813ZM85.009 119.56C85.009 120.655 85.9426 121.297 87.1974 121.297C88.9743 121.297 90.2693 120.133 90.2693 118.587V117.603L87.3781 117.784C85.7318 117.884 85.009 118.466 85.009 119.54V119.56ZM95.2084 122.622V111.801H96.9551V113.427H97.1158C97.6579 112.282 98.6718 111.61 100.268 111.61C102.697 111.61 104.053 113.045 104.053 115.615V122.622H102.306V116.037C102.306 114.089 101.503 113.156 99.776 113.156C98.0494 113.156 96.9551 114.32 96.9551 116.218V122.622H95.2084ZM111.21 122.813C108.47 122.813 106.673 120.594 106.673 117.221V117.201C106.673 113.808 108.46 111.61 111.21 111.61C112.696 111.61 113.991 112.353 114.583 113.507H114.744V107.504H116.491V122.622H114.744V120.896H114.583C113.921 122.1 112.716 122.813 111.21 122.813ZM111.612 121.267C113.579 121.267 114.784 119.721 114.784 117.221V117.201C114.784 114.702 113.579 113.156 111.612 113.156C109.634 113.156 108.46 114.682 108.46 117.201V117.221C108.46 119.741 109.634 121.267 111.612 121.267ZM126.549 109.712C125.887 109.712 125.345 109.17 125.345 108.508C125.345 107.845 125.887 107.303 126.549 107.303C127.212 107.303 127.754 107.845 127.754 108.508C127.754 109.17 127.212 109.712 126.549 109.712ZM125.666 122.622V111.801H127.413V122.622H125.666ZM131.428 122.622V113.246H129.631V111.801H131.428V110.596C131.428 108.438 132.513 107.404 134.57 107.404C134.992 107.404 135.374 107.434 135.735 107.504V108.899C135.524 108.859 135.233 108.849 134.922 108.849C133.677 108.849 133.175 109.461 133.175 110.646V111.801H135.635V113.246H133.175V122.622H131.428ZM147.782 122.703C145.553 122.703 144.619 121.879 144.619 119.811V113.246H142.913V111.801H144.619V109H146.426V111.801H148.795V113.246H146.426V119.37C146.426 120.645 146.868 121.157 147.992 121.157C148.304 121.157 148.474 121.147 148.795 121.116V122.602C148.454 122.662 148.123 122.703 147.782 122.703ZM151.506 122.622V107.504H153.253V113.427H153.413C153.955 112.282 154.969 111.61 156.565 111.61C158.995 111.61 160.35 113.045 160.35 115.615V122.622H158.603V116.037C158.603 114.089 157.8 113.156 156.074 113.156C154.347 113.156 153.253 114.32 153.253 116.218V122.622H151.506ZM166.484 122.813C164.426 122.813 162.87 121.568 162.87 119.601V119.581C162.87 117.653 164.295 116.539 166.815 116.388L169.917 116.197V115.214C169.917 113.879 169.104 113.156 167.488 113.156C166.193 113.156 165.339 113.638 165.058 114.481L165.048 114.511H163.302L163.312 114.451C163.593 112.754 165.239 111.61 167.548 111.61C170.188 111.61 171.664 112.965 171.664 115.214V122.622H169.917V121.026H169.756C169.074 122.181 167.939 122.813 166.484 122.813ZM164.657 119.56C164.657 120.655 165.59 121.297 166.845 121.297C168.622 121.297 169.917 120.133 169.917 118.587V117.603L167.026 117.784C165.38 117.884 164.657 118.466 164.657 119.54V119.56ZM178.701 122.703C176.472 122.703 175.539 121.879 175.539 119.811V113.246H173.832V111.801H175.539V109H177.346V111.801H179.715V113.246H177.346V119.37C177.346 120.645 177.787 121.157 178.912 121.157C179.223 121.157 179.394 121.147 179.715 121.116V122.602C179.374 122.662 179.042 122.703 178.701 122.703ZM192.103 122.813C189.362 122.813 187.565 120.594 187.565 117.221V117.201C187.565 113.808 189.352 111.61 192.103 111.61C193.589 111.61 194.884 112.353 195.476 113.507H195.636V107.504H197.383V122.622H195.636V120.896H195.476C194.813 122.1 193.609 122.813 192.103 122.813ZM192.504 121.267C194.472 121.267 195.677 119.721 195.677 117.221V117.201C195.677 114.702 194.472 113.156 192.504 113.156C190.527 113.156 189.352 114.682 189.352 117.201V117.221C189.352 119.741 190.527 121.267 192.504 121.267ZM205.183 122.813C202.101 122.813 200.194 120.685 200.194 117.221V117.201C200.194 113.728 202.101 111.61 205.183 111.61C208.265 111.61 210.173 113.728 210.173 117.201V117.221C210.173 120.685 208.265 122.813 205.183 122.813ZM205.183 121.267C207.231 121.267 208.386 119.771 208.386 117.221V117.201C208.386 114.641 207.231 113.156 205.183 113.156C203.135 113.156 201.981 114.641 201.981 117.201V117.221C201.981 119.771 203.135 121.267 205.183 121.267ZM217.3 122.813C214.208 122.813 212.341 120.645 212.341 117.252V117.242C212.341 113.899 214.248 111.61 217.19 111.61C220.131 111.61 221.918 113.798 221.918 117.031V117.713H214.128C214.178 119.952 215.413 121.257 217.34 121.257C218.806 121.257 219.709 120.564 220.001 119.912L220.041 119.821H221.787L221.767 119.902C221.396 121.367 219.85 122.813 217.3 122.813ZM217.18 113.166C215.573 113.166 214.349 114.26 214.158 116.318H220.141C219.96 114.18 218.776 113.166 217.18 113.166ZM228.343 122.813C225.933 122.813 224.277 121.649 224.076 119.862H225.863C226.154 120.765 227.018 121.357 228.403 121.357C229.859 121.357 230.893 120.665 230.893 119.681V119.661C230.893 118.928 230.341 118.416 229.005 118.095L227.329 117.693C225.301 117.211 224.388 116.328 224.388 114.772V114.762C224.388 112.965 226.114 111.61 228.413 111.61C230.682 111.61 232.258 112.744 232.499 114.511H230.782C230.551 113.658 229.708 113.065 228.403 113.065C227.118 113.065 226.174 113.728 226.174 114.682V114.702C226.174 115.435 226.717 115.896 227.991 116.208L229.658 116.609C231.696 117.101 232.68 117.984 232.68 119.53V119.55C232.68 121.478 230.802 122.813 228.343 122.813ZM235.39 122.622V111.801H237.137V113.427H237.297C237.839 112.282 238.853 111.61 240.45 111.61C242.879 111.61 244.234 113.045 244.234 115.615V122.622H242.487V116.037C242.487 114.089 241.684 113.156 239.958 113.156C238.231 113.156 237.137 114.32 237.137 116.218V122.622H235.39ZM248.099 113.848L247.888 108.136H249.756L249.545 113.848H248.099ZM257.345 122.703C255.116 122.703 254.183 121.879 254.183 119.811V113.246H252.476V111.801H254.183V109H255.99V111.801H258.359V113.246H255.99V119.37C255.99 120.645 256.431 121.157 257.556 121.157C257.867 121.157 258.038 121.147 258.359 121.116V122.602C258.017 122.662 257.686 122.703 257.345 122.703ZM268.839 122.622L265.808 111.801H267.554L269.683 120.454H269.843L272.263 111.801H273.919L276.338 120.454H276.499L278.627 111.801H280.364L277.332 122.622H275.575L273.156 114.25H272.995L270.586 122.622H268.839ZM286.718 122.813C283.636 122.813 281.729 120.685 281.729 117.221V117.201C281.729 113.728 283.636 111.61 286.718 111.61C289.8 111.61 291.708 113.728 291.708 117.201V117.221C291.708 120.685 289.8 122.813 286.718 122.813ZM286.718 121.267C288.766 121.267 289.921 119.771 289.921 117.221V117.201C289.921 114.641 288.766 113.156 286.718 113.156C284.67 113.156 283.516 114.641 283.516 117.201V117.221C283.516 119.771 284.67 121.267 286.718 121.267ZM294.418 122.622V111.801H296.165V113.407H296.325C296.737 112.272 297.751 111.61 299.217 111.61C299.548 111.61 299.919 111.65 300.09 111.68V113.377C299.729 113.316 299.397 113.276 299.016 113.276C297.349 113.276 296.165 114.33 296.165 115.916V122.622H294.418ZM302.349 122.622V107.504H304.096V116.529H304.256L308.934 111.801H311.052L306.334 116.348L311.364 122.622H309.165L305.109 117.533L304.096 118.516V122.622H302.349ZM312.97 126.307L313.843 120.594H315.841L314.265 126.307H312.97ZM325.297 122.622V111.801H327.044V113.447H327.205C327.687 112.282 328.711 111.61 330.126 111.61C331.592 111.61 332.616 112.383 333.118 113.507H333.278C333.861 112.363 335.095 111.61 336.591 111.61C338.8 111.61 340.034 112.875 340.034 115.143V122.622H338.288V115.545C338.288 113.949 337.555 113.156 336.029 113.156C334.523 113.156 333.529 114.29 333.529 115.665V122.622H331.782V115.274C331.782 113.989 330.899 113.156 329.534 113.156C328.118 113.156 327.044 114.391 327.044 115.916V122.622H325.297ZM346.158 122.813C344.1 122.813 342.544 121.568 342.544 119.601V119.581C342.544 117.653 343.97 116.539 346.489 116.388L349.591 116.197V115.214C349.591 113.879 348.778 113.156 347.162 113.156C345.867 113.156 345.014 113.638 344.733 114.481L344.722 114.511H342.976L342.986 114.451C343.267 112.754 344.913 111.61 347.222 111.61C349.862 111.61 351.338 112.965 351.338 115.214V122.622H349.591V121.026H349.431C348.748 122.181 347.614 122.813 346.158 122.813ZM344.331 119.56C344.331 120.655 345.265 121.297 346.519 121.297C348.296 121.297 349.591 120.133 349.591 118.587V117.603L346.7 117.784C345.054 117.884 344.331 118.466 344.331 119.54V119.56ZM354.631 122.622V107.504H356.378V116.529H356.538L361.216 111.801H363.334L358.616 116.348L363.646 122.622H361.447L357.391 117.533L356.378 118.516V122.622H354.631ZM369.609 122.813C366.517 122.813 364.649 120.645 364.649 117.252V117.242C364.649 113.899 366.557 111.61 369.498 111.61C372.44 111.61 374.226 113.798 374.226 117.031V117.713H366.436C366.487 119.952 367.721 121.257 369.649 121.257C371.114 121.257 372.018 120.564 372.309 119.912L372.349 119.821H374.096L374.076 119.902C373.704 121.367 372.158 122.813 369.609 122.813ZM369.488 113.166C367.882 113.166 366.657 114.26 366.466 116.318H372.45C372.269 114.18 371.084 113.166 369.488 113.166ZM87.5789 151.813C85.1696 151.813 83.5132 150.649 83.3124 148.862H85.0993C85.3905 149.765 86.2538 150.357 87.6391 150.357C89.0948 150.357 90.1288 149.665 90.1288 148.681V148.661C90.1288 147.928 89.5766 147.416 88.2415 147.095L86.565 146.693C84.5372 146.211 83.6236 145.328 83.6236 143.772V143.762C83.6236 141.965 85.3503 140.61 87.6492 140.61C89.918 140.61 91.494 141.744 91.735 143.511H90.0183C89.7875 142.658 88.9442 142.065 87.6391 142.065C86.3542 142.065 85.4105 142.728 85.4105 143.682V143.702C85.4105 144.435 85.9526 144.896 87.2276 145.208L88.894 145.609C90.9319 146.101 91.9157 146.984 91.9157 148.53V148.55C91.9157 150.478 90.0384 151.813 87.5789 151.813ZM98.2501 151.813C95.7906 151.813 94.5258 150.367 94.5258 147.808V140.801H96.2725V147.386C96.2725 149.333 96.9752 150.267 98.7019 150.267C100.609 150.267 101.623 149.103 101.623 147.205V140.801H103.37V151.622H101.623V150.006H101.463C100.931 151.161 99.8363 151.813 98.2501 151.813ZM106.633 151.622V140.801H108.379V142.407H108.54C108.951 141.272 109.965 140.61 111.431 140.61C111.762 140.61 112.134 140.65 112.304 140.68V142.377C111.943 142.316 111.612 142.276 111.23 142.276C109.564 142.276 108.379 143.33 108.379 144.916V151.622H106.633ZM118.579 151.813C115.487 151.813 113.62 149.645 113.62 146.252V146.242C113.62 142.899 115.527 140.61 118.468 140.61C121.41 140.61 123.197 142.798 123.197 146.031V146.713H115.406C115.457 148.952 116.691 150.257 118.619 150.257C120.085 150.257 120.988 149.564 121.279 148.912L121.319 148.821H123.066L123.046 148.902C122.675 150.367 121.129 151.813 118.579 151.813ZM118.458 142.166C116.852 142.166 115.627 143.26 115.437 145.318H121.42C121.239 143.18 120.054 142.166 118.458 142.166ZM132.613 155.417C132.382 155.417 132.081 155.397 131.84 155.357V153.921C132.051 153.961 132.322 153.971 132.563 153.971C133.557 153.971 134.159 153.52 134.55 152.275L134.751 151.632L130.746 140.801H132.613L135.584 149.705H135.745L138.706 140.801H140.544L136.317 152.285C135.424 154.714 134.53 155.417 132.613 155.417ZM146.898 151.813C143.816 151.813 141.909 149.685 141.909 146.221V146.201C141.909 142.728 143.816 140.61 146.898 140.61C149.98 140.61 151.887 142.728 151.887 146.201V146.221C151.887 149.685 149.98 151.813 146.898 151.813ZM146.898 150.267C148.946 150.267 150.1 148.771 150.1 146.221V146.201C150.1 143.641 148.946 142.156 146.898 142.156C144.85 142.156 143.696 143.641 143.696 146.201V146.221C143.696 148.771 144.85 150.267 146.898 150.267ZM158.222 151.813C155.762 151.813 154.497 150.367 154.497 147.808V140.801H156.244V147.386C156.244 149.333 156.947 150.267 158.674 150.267C160.581 150.267 161.595 149.103 161.595 147.205V140.801H163.342V151.622H161.595V150.006H161.434C160.902 151.161 159.808 151.813 158.222 151.813ZM172.487 151.622V136.504H174.234V142.427H174.394C174.936 141.282 175.95 140.61 177.547 140.61C179.976 140.61 181.331 142.045 181.331 144.615V151.622H179.584V145.037C179.584 143.089 178.781 142.156 177.055 142.156C175.328 142.156 174.234 143.32 174.234 145.218V151.622H172.487ZM187.465 151.813C185.407 151.813 183.851 150.568 183.851 148.601V148.581C183.851 146.653 185.276 145.539 187.796 145.388L190.898 145.197V144.214C190.898 142.879 190.085 142.156 188.469 142.156C187.174 142.156 186.32 142.638 186.039 143.481L186.029 143.511H184.283L184.293 143.451C184.574 141.754 186.22 140.61 188.529 140.61C191.169 140.61 192.645 141.965 192.645 144.214V151.622H190.898V150.026H190.738C190.055 151.181 188.92 151.813 187.465 151.813ZM185.638 148.56C185.638 149.655 186.571 150.297 187.826 150.297C189.603 150.297 190.898 149.133 190.898 147.587V146.603L188.007 146.784C186.361 146.884 185.638 147.466 185.638 148.54V148.56ZM198.497 151.622L194.492 140.801H196.339L199.301 149.715H199.461L202.423 140.801H204.27L200.264 151.622H198.497ZM210.594 151.813C207.502 151.813 205.635 149.645 205.635 146.252V146.242C205.635 142.899 207.542 140.61 210.484 140.61C213.425 140.61 215.212 142.798 215.212 146.031V146.713H207.422C207.472 148.952 208.707 150.257 210.634 150.257C212.1 150.257 213.004 149.564 213.295 148.912L213.335 148.821H215.082L215.061 148.902C214.69 150.367 213.144 151.813 210.594 151.813ZM210.474 142.166C208.868 142.166 207.643 143.26 207.452 145.318H213.435C213.255 143.18 212.07 142.166 210.474 142.166ZM227.55 151.703C225.321 151.703 224.388 150.879 224.388 148.811V142.246H222.681V140.801H224.388V138H226.195V140.801H228.564V142.246H226.195V148.37C226.195 149.645 226.636 150.157 227.761 150.157C228.072 150.157 228.242 150.147 228.564 150.116V151.602C228.222 151.662 227.891 151.703 227.55 151.703ZM231.274 151.622V136.504H233.021V142.427H233.181C233.724 141.282 234.738 140.61 236.334 140.61C238.763 140.61 240.118 142.045 240.118 144.615V151.622H238.372V145.037C238.372 143.089 237.568 142.156 235.842 142.156C234.115 142.156 233.021 143.32 233.021 145.218V151.622H231.274ZM247.698 151.813C244.606 151.813 242.738 149.645 242.738 146.252V146.242C242.738 142.899 244.646 140.61 247.587 140.61C250.529 140.61 252.315 142.798 252.315 146.031V146.713H244.525C244.576 148.952 245.81 150.257 247.738 150.257C249.203 150.257 250.107 149.564 250.398 148.912L250.438 148.821H252.185L252.165 148.902C251.793 150.367 250.247 151.813 247.698 151.813ZM247.577 142.166C245.971 142.166 244.746 143.26 244.555 145.318H250.539C250.358 143.18 249.173 142.166 247.577 142.166ZM260.909 151.622V136.504H262.655V151.622H260.909ZM268.98 151.813C266.922 151.813 265.366 150.568 265.366 148.601V148.581C265.366 146.653 266.791 145.539 269.311 145.388L272.413 145.197V144.214C272.413 142.879 271.6 142.156 269.984 142.156C268.689 142.156 267.835 142.638 267.554 143.481L267.544 143.511H265.798L265.808 143.451C266.089 141.754 267.735 140.61 270.044 140.61C272.684 140.61 274.16 141.965 274.16 144.214V151.622H272.413V150.026H272.252C271.57 151.181 270.435 151.813 268.98 151.813ZM267.153 148.56C267.153 149.655 268.086 150.297 269.341 150.297C271.118 150.297 272.413 149.133 272.413 147.587V146.603L269.522 146.784C267.876 146.884 267.153 147.466 267.153 148.54V148.56ZM281.197 151.703C278.968 151.703 278.035 150.879 278.035 148.811V142.246H276.328V140.801H278.035V138H279.842V140.801H282.211V142.246H279.842V148.37C279.842 149.645 280.284 150.157 281.408 150.157C281.719 150.157 281.89 150.147 282.211 150.116V151.602C281.87 151.662 281.538 151.703 281.197 151.703ZM289.077 151.813C285.986 151.813 284.118 149.645 284.118 146.252V146.242C284.118 142.899 286.026 140.61 288.967 140.61C291.908 140.61 293.695 142.798 293.695 146.031V146.713H285.905C285.955 148.952 287.19 150.257 289.118 150.257C290.583 150.257 291.487 149.564 291.778 148.912L291.818 148.821H293.565L293.545 148.902C293.173 150.367 291.627 151.813 289.077 151.813ZM288.957 142.166C287.351 142.166 286.126 143.26 285.935 145.318H291.918C291.738 143.18 290.553 142.166 288.957 142.166ZM300.12 151.813C297.711 151.813 296.054 150.649 295.854 148.862H297.641C297.932 149.765 298.795 150.357 300.18 150.357C301.636 150.357 302.67 149.665 302.67 148.681V148.661C302.67 147.928 302.118 147.416 300.783 147.095L299.106 146.693C297.078 146.211 296.165 145.328 296.165 143.772V143.762C296.165 141.965 297.892 140.61 300.19 140.61C302.459 140.61 304.035 141.744 304.276 143.511H302.56C302.329 142.658 301.485 142.065 300.18 142.065C298.895 142.065 297.952 142.728 297.952 143.682V143.702C297.952 144.435 298.494 144.896 299.769 145.208L301.435 145.609C303.473 146.101 304.457 146.984 304.457 148.53V148.55C304.457 150.478 302.58 151.813 300.12 151.813ZM310.912 151.703C308.683 151.703 307.75 150.879 307.75 148.811V142.246H306.043V140.801H307.75V138H309.557V140.801H311.926V142.246H309.557V148.37C309.557 149.645 309.998 150.157 311.123 150.157C311.434 150.157 311.605 150.147 311.926 150.116V151.602C311.584 151.662 311.253 151.703 310.912 151.703ZM323.38 151.622L319.375 140.801H321.222L324.183 149.715H324.344L327.305 140.801H329.152L325.147 151.622H323.38ZM335.477 151.813C332.385 151.813 330.518 149.645 330.518 146.252V146.242C330.518 142.899 332.425 140.61 335.366 140.61C338.308 140.61 340.095 142.798 340.095 146.031V146.713H332.305C332.355 148.952 333.589 150.257 335.517 150.257C336.983 150.257 337.886 149.564 338.177 148.912L338.217 148.821H339.964L339.944 148.902C339.573 150.367 338.027 151.813 335.477 151.813ZM335.356 142.166C333.75 142.166 332.525 143.26 332.335 145.318H338.318C338.137 143.18 336.952 142.166 335.356 142.166ZM342.805 151.622V140.801H344.552V142.407H344.712C345.124 141.272 346.138 140.61 347.604 140.61C347.935 140.61 348.306 140.65 348.477 140.68V142.377C348.116 142.316 347.784 142.276 347.403 142.276C345.736 142.276 344.552 143.33 344.552 144.916V151.622H342.805ZM354.149 151.813C351.74 151.813 350.083 150.649 349.882 148.862H351.669C351.96 149.765 352.824 150.357 354.209 150.357C355.665 150.357 356.699 149.665 356.699 148.681V148.661C356.699 147.928 356.147 147.416 354.811 147.095L353.135 146.693C351.107 146.211 350.194 145.328 350.194 143.772V143.762C350.194 141.965 351.92 140.61 354.219 140.61C356.488 140.61 358.064 141.744 358.305 143.511H356.588C356.357 142.658 355.514 142.065 354.209 142.065C352.924 142.065 351.981 142.728 351.981 143.682V143.702C351.981 144.435 352.523 144.896 353.798 145.208L355.464 145.609C357.502 146.101 358.486 146.984 358.486 148.53V148.55C358.486 150.478 356.608 151.813 354.149 151.813ZM362.12 138.712C361.457 138.712 360.915 138.17 360.915 137.508C360.915 136.845 361.457 136.303 362.12 136.303C362.782 136.303 363.324 136.845 363.324 137.508C363.324 138.17 362.782 138.712 362.12 138.712ZM361.236 151.622V140.801H362.983V151.622H361.236ZM370.723 151.813C367.641 151.813 365.734 149.685 365.734 146.221V146.201C365.734 142.728 367.641 140.61 370.723 140.61C373.805 140.61 375.712 142.728 375.712 146.201V146.221C375.712 149.685 373.805 151.813 370.723 151.813ZM370.723 150.267C372.771 150.267 373.925 148.771 373.925 146.221V146.201C373.925 143.641 372.771 142.156 370.723 142.156C368.675 142.156 367.521 143.641 367.521 146.201V146.221C367.521 148.771 368.675 150.267 370.723 150.267ZM378.423 151.622V140.801H380.169V142.427H380.33C380.872 141.282 381.886 140.61 383.482 140.61C385.912 140.61 387.267 142.045 387.267 144.615V151.622H385.52V145.037C385.52 143.089 384.717 142.156 382.99 142.156C381.264 142.156 380.169 143.32 380.169 145.218V151.622H378.423ZM84.7881 167.712C84.1256 167.712 83.5835 167.17 83.5835 166.508C83.5835 165.845 84.1256 165.303 84.7881 165.303C85.4507 165.303 85.9928 165.845 85.9928 166.508C85.9928 167.17 85.4507 167.712 84.7881 167.712ZM83.9047 180.622V169.801H85.6515V180.622H83.9047ZM88.9442 180.622V169.801H90.6909V171.427H90.8516C91.3937 170.282 92.4076 169.61 94.0037 169.61C96.4331 169.61 97.7884 171.045 97.7884 173.615V180.622H96.0416V174.037C96.0416 172.089 95.2385 171.156 93.5118 171.156C91.7852 171.156 90.6909 172.32 90.6909 174.218V180.622H88.9442ZM104.665 180.813C102.256 180.813 100.599 179.649 100.398 177.862H102.185C102.476 178.765 103.34 179.357 104.725 179.357C106.181 179.357 107.215 178.665 107.215 177.681V177.661C107.215 176.928 106.663 176.416 105.327 176.095L103.651 175.693C101.623 175.211 100.71 174.328 100.71 172.772V172.762C100.71 170.965 102.436 169.61 104.735 169.61C107.004 169.61 108.58 170.744 108.821 172.511H107.104C106.873 171.658 106.03 171.065 104.725 171.065C103.44 171.065 102.497 171.728 102.497 172.682V172.702C102.497 173.435 103.039 173.896 104.314 174.208L105.98 174.609C108.018 175.101 109.002 175.984 109.002 177.53V177.55C109.002 179.478 107.124 180.813 104.665 180.813ZM115.457 180.703C113.228 180.703 112.294 179.879 112.294 177.811V171.246H110.588V169.801H112.294V167H114.101V169.801H116.471V171.246H114.101V177.37C114.101 178.645 114.543 179.157 115.667 179.157C115.979 179.157 116.149 179.147 116.471 179.116V180.602C116.129 180.662 115.798 180.703 115.457 180.703ZM122.052 180.813C119.994 180.813 118.438 179.568 118.438 177.601V177.581C118.438 175.653 119.864 174.539 122.383 174.388L125.485 174.197V173.214C125.485 171.879 124.672 171.156 123.056 171.156C121.761 171.156 120.908 171.638 120.627 172.481L120.617 172.511H118.87L118.88 172.451C119.161 170.754 120.807 169.61 123.116 169.61C125.756 169.61 127.232 170.965 127.232 173.214V180.622H125.485V179.026H125.325C124.642 180.181 123.508 180.813 122.052 180.813ZM120.225 177.56C120.225 178.655 121.159 179.297 122.414 179.297C124.19 179.297 125.485 178.133 125.485 176.587V175.603L122.594 175.784C120.948 175.884 120.225 176.466 120.225 177.54V177.56ZM130.525 180.622V165.504H132.272V180.622H130.525ZM135.725 180.622V165.504H137.472V180.622H135.725ZM145.242 180.813C142.15 180.813 140.283 178.645 140.283 175.252V175.242C140.283 171.899 142.19 169.61 145.131 169.61C148.073 169.61 149.86 171.798 149.86 175.031V175.713H142.069C142.12 177.952 143.354 179.257 145.282 179.257C146.748 179.257 147.651 178.564 147.942 177.912L147.982 177.821H149.729L149.709 177.902C149.338 179.367 147.792 180.813 145.242 180.813ZM145.121 171.166C143.515 171.166 142.29 172.26 142.1 174.318H148.083C147.902 172.18 146.717 171.166 145.121 171.166ZM156.565 180.813C153.825 180.813 152.028 178.594 152.028 175.221V175.201C152.028 171.808 153.815 169.61 156.565 169.61C158.051 169.61 159.346 170.353 159.939 171.507H160.099V165.504H161.846V180.622H160.099V178.896H159.939C159.276 180.1 158.071 180.813 156.565 180.813ZM156.967 179.267C158.935 179.267 160.139 177.721 160.139 175.221V175.201C160.139 172.702 158.935 171.156 156.967 171.156C154.989 171.156 153.815 172.682 153.815 175.201V175.221C153.815 177.741 154.989 179.267 156.967 179.267ZM166.624 180.723C165.912 180.723 165.319 180.13 165.319 179.418C165.319 178.695 165.912 178.113 166.624 178.113C167.347 178.113 167.929 178.695 167.929 179.418C167.929 180.13 167.347 180.723 166.624 180.723ZM182.054 180.964C178.882 180.964 176.834 179.297 176.623 176.938L176.613 176.828H178.42L178.43 176.938C178.56 178.384 180.066 179.297 182.154 179.297C184.122 179.297 185.557 178.283 185.557 176.808V176.798C185.557 175.593 184.724 174.77 182.737 174.328L181.13 173.977C178.229 173.334 176.974 171.999 176.974 169.901V169.891C176.984 167.492 179.082 165.795 182.074 165.795C184.965 165.795 186.983 167.502 187.134 169.66L187.144 169.801H185.337L185.317 169.67C185.116 168.395 183.911 167.451 182.024 167.461C180.217 167.472 178.821 168.325 178.821 169.841V169.851C178.821 171.005 179.615 171.788 181.582 172.22L183.188 172.581C186.21 173.254 187.405 174.469 187.405 176.557V176.567C187.405 179.277 185.286 180.964 182.054 180.964ZM194.04 180.703C191.812 180.703 190.878 179.879 190.878 177.811V171.246H189.171V169.801H190.878V167H192.685V169.801H195.054V171.246H192.685V177.37C192.685 178.645 193.127 179.157 194.251 179.157C194.562 179.157 194.733 179.147 195.054 179.116V180.602C194.713 180.662 194.382 180.703 194.04 180.703ZM198.588 167.712C197.925 167.712 197.383 167.17 197.383 166.508C197.383 165.845 197.925 165.303 198.588 165.303C199.25 165.303 199.792 165.845 199.792 166.508C199.792 167.17 199.25 167.712 198.588 167.712ZM197.704 180.622V169.801H199.451V180.622H197.704ZM202.844 180.622V165.504H204.591V180.622H202.844ZM208.044 180.622V165.504H209.791V180.622H208.044ZM219.027 180.622V165.504H220.774V171.427H220.934C221.476 170.282 222.49 169.61 224.086 169.61C226.516 169.61 227.871 171.045 227.871 173.615V180.622H226.124V174.037C226.124 172.089 225.321 171.156 223.594 171.156C221.868 171.156 220.774 172.32 220.774 174.218V180.622H219.027ZM234.005 180.813C231.947 180.813 230.391 179.568 230.391 177.601V177.581C230.391 175.653 231.816 174.539 234.336 174.388L237.438 174.197V173.214C237.438 171.879 236.625 171.156 235.009 171.156C233.714 171.156 232.86 171.638 232.579 172.481L232.569 172.511H230.822L230.832 172.451C231.114 170.754 232.76 169.61 235.069 169.61C237.709 169.61 239.185 170.965 239.185 173.214V180.622H237.438V179.026H237.277C236.595 180.181 235.46 180.813 234.005 180.813ZM232.178 177.56C232.178 178.655 233.111 179.297 234.366 179.297C236.143 179.297 237.438 178.133 237.438 176.587V175.603L234.547 175.784C232.9 175.884 232.178 176.466 232.178 177.54V177.56ZM245.037 180.622L241.032 169.801H242.879L245.84 178.715H246.001L248.962 169.801H250.81L246.804 180.622H245.037ZM254.042 167.712C253.38 167.712 252.837 167.17 252.837 166.508C252.837 165.845 253.38 165.303 254.042 165.303C254.705 165.303 255.247 165.845 255.247 166.508C255.247 167.17 254.705 167.712 254.042 167.712ZM253.159 180.622V169.801H254.905V180.622H253.159ZM258.198 180.622V169.801H259.945V171.427H260.106C260.648 170.282 261.662 169.61 263.258 169.61C265.687 169.61 267.042 171.045 267.042 173.615V180.622H265.296V174.037C265.296 172.089 264.492 171.156 262.766 171.156C261.039 171.156 259.945 172.32 259.945 174.218V180.622H258.198ZM274.662 184.437C272.052 184.437 270.385 183.263 270.114 181.486L270.134 181.476H271.941L271.951 181.486C272.142 182.309 273.106 182.891 274.662 182.891C276.599 182.891 277.754 181.978 277.754 180.381V178.193H277.593C276.91 179.388 275.686 180.06 274.2 180.06C271.399 180.06 269.662 177.892 269.662 174.86V174.84C269.662 171.808 271.409 169.61 274.24 169.61C275.766 169.61 276.951 170.363 277.613 171.587H277.734V169.801H279.48V180.472C279.48 182.891 277.613 184.437 274.662 184.437ZM274.581 178.514C276.589 178.514 277.794 177.008 277.794 174.86V174.84C277.794 172.692 276.579 171.156 274.581 171.156C272.574 171.156 271.449 172.692 271.449 174.84V174.86C271.449 177.008 272.574 178.514 274.581 178.514ZM292.36 180.703C290.132 180.703 289.198 179.879 289.198 177.811V171.246H287.491V169.801H289.198V167H291.005V169.801H293.374V171.246H291.005V177.37C291.005 178.645 291.447 179.157 292.571 179.157C292.882 179.157 293.053 179.147 293.374 179.116V180.602C293.033 180.662 292.701 180.703 292.36 180.703ZM295.984 180.622V169.801H297.731V171.407H297.892C298.303 170.272 299.317 169.61 300.783 169.61C301.114 169.61 301.485 169.65 301.656 169.68V171.377C301.295 171.316 300.963 171.276 300.582 171.276C298.915 171.276 297.731 172.33 297.731 173.916V180.622H295.984ZM307.96 180.813C304.879 180.813 302.971 178.685 302.971 175.221V175.201C302.971 171.728 304.879 169.61 307.96 169.61C311.042 169.61 312.95 171.728 312.95 175.201V175.221C312.95 178.685 311.042 180.813 307.96 180.813ZM307.96 179.267C310.008 179.267 311.163 177.771 311.163 175.221V175.201C311.163 172.641 310.008 171.156 307.96 171.156C305.913 171.156 304.758 172.641 304.758 175.201V175.221C304.758 177.771 305.913 179.267 307.96 179.267ZM319.284 180.813C316.825 180.813 315.56 179.367 315.56 176.808V169.801H317.307V176.386C317.307 178.333 318.009 179.267 319.736 179.267C321.643 179.267 322.657 178.103 322.657 176.205V169.801H324.404V180.622H322.657V179.006H322.497C321.965 180.161 320.87 180.813 319.284 180.813ZM333.047 180.813C331.542 180.813 330.337 180.1 329.674 178.896H329.514V180.622H327.767V165.504H329.514V171.507H329.674C330.267 170.353 331.562 169.61 333.047 169.61C335.798 169.61 337.585 171.808 337.585 175.201V175.221C337.585 178.594 335.788 180.813 333.047 180.813ZM332.646 179.267C334.623 179.267 335.798 177.741 335.798 175.221V175.201C335.798 172.682 334.623 171.156 332.646 171.156C330.678 171.156 329.474 172.702 329.474 175.201V175.221C329.474 177.721 330.678 179.267 332.646 179.267ZM340.396 180.622V165.504H342.143V180.622H340.396ZM349.913 180.813C346.821 180.813 344.953 178.645 344.953 175.252V175.242C344.953 171.899 346.861 169.61 349.802 169.61C352.743 169.61 354.53 171.798 354.53 175.031V175.713H346.74C346.79 177.952 348.025 179.257 349.953 179.257C351.418 179.257 352.322 178.564 352.613 177.912L352.653 177.821H354.4L354.38 177.902C354.008 179.367 352.462 180.813 349.913 180.813ZM349.792 171.166C348.186 171.166 346.961 172.26 346.77 174.318H352.753C352.573 172.18 351.388 171.166 349.792 171.166ZM359.56 176.145V175.221C359.55 173.896 360.192 172.993 361.568 172.17C362.732 171.457 363.184 170.824 363.184 169.76V169.74C363.184 168.505 362.22 167.592 360.724 167.592C359.208 167.592 358.245 168.485 358.144 169.911L358.124 169.921L356.418 169.931V169.911C356.528 167.753 357.974 166.026 360.795 166.026C363.324 166.026 365.051 167.592 365.051 169.65V169.67C365.051 171.236 364.238 172.35 362.953 173.123C361.678 173.876 361.317 174.438 361.317 175.492V176.145H359.56ZM360.574 180.803C359.761 180.803 359.178 180.221 359.178 179.408C359.178 178.584 359.761 178.002 360.574 178.002C361.387 178.002 361.959 178.584 361.959 179.408C361.959 180.221 361.387 180.803 360.574 180.803ZM373.785 180.622V166.136H375.592V180.622H373.785ZM88.2917 210.813C85.26 210.813 83.3225 208.615 83.3225 205.181V205.161C83.3225 201.798 85.2499 199.61 88.2816 199.61C90.9118 199.61 92.4879 201.126 92.8091 203.053L92.8192 203.113H91.0825L91.0724 203.083C90.8014 202.019 89.8376 201.156 88.2816 201.156C86.3341 201.156 85.1094 202.722 85.1094 205.161V205.181C85.1094 207.671 86.3542 209.267 88.2816 209.267C89.7373 209.267 90.6608 208.625 91.0624 207.42L91.0825 207.36L92.8091 207.35L92.789 207.46C92.3473 209.418 90.8917 210.813 88.2917 210.813ZM98.3405 210.813C96.2825 210.813 94.7265 209.568 94.7265 207.601V207.581C94.7265 205.653 96.152 204.539 98.6718 204.388L101.774 204.197V203.214C101.774 201.879 100.961 201.156 99.3444 201.156C98.0494 201.156 97.1961 201.638 96.915 202.481L96.905 202.511H95.1582L95.1682 202.451C95.4493 200.754 97.0957 199.61 99.4046 199.61C102.045 199.61 103.521 200.965 103.521 203.214V210.622H101.774V209.026H101.613C100.931 210.181 99.7961 210.813 98.3405 210.813ZM96.5134 207.56C96.5134 208.655 97.447 209.297 98.7019 209.297C100.479 209.297 101.774 208.133 101.774 206.587V205.603L98.8826 205.784C97.2362 205.884 96.5134 206.466 96.5134 207.54V207.56ZM106.713 210.622V199.801H108.46V201.427H108.62C109.162 200.282 110.176 199.61 111.772 199.61C114.202 199.61 115.557 201.045 115.557 203.615V210.622H113.81V204.037C113.81 202.089 113.007 201.156 111.28 201.156C109.554 201.156 108.46 202.32 108.46 204.218V210.622H106.713ZM128.959 214.437C126.349 214.437 124.682 213.263 124.411 211.486L124.431 211.476H126.238L126.248 211.486C126.439 212.309 127.403 212.891 128.959 212.891C130.896 212.891 132.051 211.978 132.051 210.381V208.193H131.89C131.207 209.388 129.983 210.06 128.497 210.06C125.696 210.06 123.959 207.892 123.959 204.86V204.84C123.959 201.808 125.706 199.61 128.537 199.61C130.063 199.61 131.248 200.363 131.91 201.587H132.031V199.801H133.777V210.472C133.777 212.891 131.91 214.437 128.959 214.437ZM128.878 208.514C130.886 208.514 132.091 207.008 132.091 204.86V204.84C132.091 202.692 130.876 201.156 128.878 201.156C126.871 201.156 125.746 202.692 125.746 204.84V204.86C125.746 207.008 126.871 208.514 128.878 208.514ZM140.654 210.813C138.194 210.813 136.93 209.367 136.93 206.808V199.801H138.676V206.386C138.676 208.333 139.379 209.267 141.106 209.267C143.013 209.267 144.027 208.103 144.027 206.205V199.801H145.774V210.622H144.027V209.006H143.866C143.334 210.161 142.24 210.813 140.654 210.813ZM149.96 197.712C149.297 197.712 148.755 197.17 148.755 196.508C148.755 195.845 149.297 195.303 149.96 195.303C150.623 195.303 151.165 195.845 151.165 196.508C151.165 197.17 150.623 197.712 149.96 197.712ZM149.077 210.622V199.801H150.823V210.622H149.077ZM158.111 210.813C155.371 210.813 153.574 208.594 153.574 205.221V205.201C153.574 201.808 155.361 199.61 158.111 199.61C159.597 199.61 160.892 200.353 161.484 201.507H161.645V195.504H163.392V210.622H161.645V208.896H161.484C160.822 210.1 159.617 210.813 158.111 210.813ZM158.513 209.267C160.481 209.267 161.685 207.721 161.685 205.221V205.201C161.685 202.702 160.481 201.156 158.513 201.156C156.535 201.156 155.361 202.682 155.361 205.201V205.221C155.361 207.741 156.535 209.267 158.513 209.267ZM171.162 210.813C168.07 210.813 166.203 208.645 166.203 205.252V205.242C166.203 201.899 168.11 199.61 171.051 199.61C173.993 199.61 175.78 201.798 175.78 205.031V205.713H167.99C168.04 207.952 169.275 209.257 171.202 209.257C172.668 209.257 173.571 208.564 173.862 207.912L173.902 207.821H175.649L175.629 207.902C175.258 209.367 173.712 210.813 171.162 210.813ZM171.041 201.166C169.435 201.166 168.21 202.26 168.02 204.318H174.003C173.822 202.18 172.638 201.166 171.041 201.166ZM185.196 214.417C184.965 214.417 184.664 214.397 184.423 214.357V212.921C184.634 212.961 184.905 212.971 185.146 212.971C186.14 212.971 186.742 212.52 187.134 211.275L187.334 210.632L183.329 199.801H185.196L188.168 208.705H188.328L191.29 199.801H193.127L188.9 211.285C188.007 213.714 187.114 214.417 185.196 214.417ZM199.481 210.813C196.399 210.813 194.492 208.685 194.492 205.221V205.201C194.492 201.728 196.399 199.61 199.481 199.61C202.563 199.61 204.471 201.728 204.471 205.201V205.221C204.471 208.685 202.563 210.813 199.481 210.813ZM199.481 209.267C201.529 209.267 202.684 207.771 202.684 205.221V205.201C202.684 202.641 201.529 201.156 199.481 201.156C197.433 201.156 196.279 202.641 196.279 205.201V205.221C196.279 207.771 197.433 209.267 199.481 209.267ZM210.805 210.813C208.346 210.813 207.081 209.367 207.081 206.808V199.801H208.827V206.386C208.827 208.333 209.53 209.267 211.257 209.267C213.164 209.267 214.178 208.103 214.178 206.205V199.801H215.925V210.622H214.178V209.006H214.017C213.485 210.161 212.391 210.813 210.805 210.813ZM228.815 210.703C226.586 210.703 225.652 209.879 225.652 207.811V201.246H223.946V199.801H225.652V197H227.459V199.801H229.829V201.246H227.459V207.37C227.459 208.645 227.901 209.157 229.025 209.157C229.337 209.157 229.507 209.147 229.829 209.116V210.602C229.487 210.662 229.156 210.703 228.815 210.703ZM232.539 210.622V195.504H234.286V201.427H234.446C234.988 200.282 236.002 199.61 237.599 199.61C240.028 199.61 241.383 201.045 241.383 203.615V210.622H239.636V204.037C239.636 202.089 238.833 201.156 237.107 201.156C235.38 201.156 234.286 202.32 234.286 204.218V210.622H232.539ZM244.545 210.622V199.801H246.292V201.407H246.453C246.864 200.272 247.878 199.61 249.344 199.61C249.675 199.61 250.047 199.65 250.217 199.68V201.377C249.856 201.316 249.525 201.276 249.143 201.276C247.477 201.276 246.292 202.33 246.292 203.916V210.622H244.545ZM256.522 210.813C253.44 210.813 251.532 208.685 251.532 205.221V205.201C251.532 201.728 253.44 199.61 256.522 199.61C259.604 199.61 261.511 201.728 261.511 205.201V205.221C261.511 208.685 259.604 210.813 256.522 210.813ZM256.522 209.267C258.57 209.267 259.724 207.771 259.724 205.221V205.201C259.724 202.641 258.57 201.156 256.522 201.156C254.474 201.156 253.319 202.641 253.319 205.201V205.221C253.319 207.771 254.474 209.267 256.522 209.267ZM267.845 210.813C265.386 210.813 264.121 209.367 264.121 206.808V199.801H265.868V206.386C265.868 208.333 266.571 209.267 268.297 209.267C270.205 209.267 271.218 208.103 271.218 206.205V199.801H272.965V210.622H271.218V209.006H271.058C270.526 210.161 269.432 210.813 267.845 210.813ZM280.685 214.437C278.075 214.437 276.409 213.263 276.137 211.486L276.158 211.476H277.965L277.975 211.486C278.165 212.309 279.129 212.891 280.685 212.891C282.623 212.891 283.777 211.978 283.777 210.381V208.193H283.616C282.934 209.388 281.709 210.06 280.223 210.06C277.422 210.06 275.686 207.892 275.686 204.86V204.84C275.686 201.808 277.432 199.61 280.263 199.61C281.789 199.61 282.974 200.363 283.636 201.587H283.757V199.801H285.504V210.472C285.504 212.891 283.636 214.437 280.685 214.437ZM280.605 208.514C282.613 208.514 283.817 207.008 283.817 204.86V204.84C283.817 202.692 282.602 201.156 280.605 201.156C278.597 201.156 277.473 202.692 277.473 204.84V204.86C277.473 207.008 278.597 208.514 280.605 208.514ZM288.857 210.622V195.504H290.603V201.427H290.764C291.306 200.282 292.32 199.61 293.916 199.61C296.346 199.61 297.701 201.045 297.701 203.615V210.622H295.954V204.037C295.954 202.089 295.151 201.156 293.424 201.156C291.698 201.156 290.603 202.32 290.603 204.218V210.622H288.857ZM309.617 210.813C307.559 210.813 306.003 209.568 306.003 207.601V207.581C306.003 205.653 307.428 204.539 309.948 204.388L313.05 204.197V203.214C313.05 201.879 312.237 201.156 310.621 201.156C309.326 201.156 308.472 201.638 308.191 202.481L308.181 202.511H306.435L306.445 202.451C306.726 200.754 308.372 199.61 310.681 199.61C313.321 199.61 314.797 200.965 314.797 203.214V210.622H313.05V209.026H312.889C312.207 210.181 311.072 210.813 309.617 210.813ZM307.79 207.56C307.79 208.655 308.723 209.297 309.978 209.297C311.755 209.297 313.05 208.133 313.05 206.587V205.603L310.159 205.784C308.513 205.884 307.79 206.466 307.79 207.54V207.56ZM321.985 210.813C319.244 210.813 317.447 208.594 317.447 205.221V205.201C317.447 201.808 319.234 199.61 321.985 199.61C323.47 199.61 324.765 200.353 325.358 201.507H325.518V195.504H327.265V210.622H325.518V208.896H325.358C324.695 210.1 323.49 210.813 321.985 210.813ZM322.386 209.267C324.354 209.267 325.558 207.721 325.558 205.221V205.201C325.558 202.702 324.354 201.156 322.386 201.156C320.409 201.156 319.234 202.682 319.234 205.201V205.221C319.234 207.741 320.409 209.267 322.386 209.267ZM334.613 210.813C331.873 210.813 330.076 208.594 330.076 205.221V205.201C330.076 201.808 331.863 199.61 334.613 199.61C336.099 199.61 337.394 200.353 337.986 201.507H338.147V195.504H339.894V210.622H338.147V208.896H337.986C337.324 210.1 336.119 210.813 334.613 210.813ZM335.015 209.267C336.983 209.267 338.187 207.721 338.187 205.221V205.201C338.187 202.702 336.983 201.156 335.015 201.156C333.037 201.156 331.863 202.682 331.863 205.201V205.221C331.863 207.741 333.037 209.267 335.015 209.267ZM344.17 197.712C343.508 197.712 342.966 197.17 342.966 196.508C342.966 195.845 343.508 195.303 344.17 195.303C344.833 195.303 345.375 195.845 345.375 196.508C345.375 197.17 344.833 197.712 344.17 197.712ZM343.287 210.622V199.801H345.034V210.622H343.287ZM352.171 210.703C349.943 210.703 349.009 209.879 349.009 207.811V201.246H347.302V199.801H349.009V197H350.816V199.801H353.185V201.246H350.816V207.37C350.816 208.645 351.258 209.157 352.382 209.157C352.693 209.157 352.864 209.147 353.185 209.116V210.602C352.844 210.662 352.513 210.703 352.171 210.703ZM356.719 197.712C356.056 197.712 355.514 197.17 355.514 196.508C355.514 195.845 356.056 195.303 356.719 195.303C357.381 195.303 357.923 195.845 357.923 196.508C357.923 197.17 357.381 197.712 356.719 197.712ZM355.835 210.622V199.801H357.582V210.622H355.835ZM365.322 210.813C362.24 210.813 360.333 208.685 360.333 205.221V205.201C360.333 201.728 362.24 199.61 365.322 199.61C368.404 199.61 370.311 201.728 370.311 205.201V205.221C370.311 208.685 368.404 210.813 365.322 210.813ZM365.322 209.267C367.37 209.267 368.524 207.771 368.524 205.221V205.201C368.524 202.641 367.37 201.156 365.322 201.156C363.274 201.156 362.12 202.641 362.12 205.201V205.221C362.12 207.771 363.274 209.267 365.322 209.267ZM373.022 210.622V199.801H374.769V201.427H374.929C375.471 200.282 376.485 199.61 378.081 199.61C380.511 199.61 381.866 201.045 381.866 203.615V210.622H380.119V204.037C380.119 202.089 379.316 201.156 377.589 201.156C375.863 201.156 374.769 202.32 374.769 204.218V210.622H373.022ZM388 210.813C385.942 210.813 384.386 209.568 384.386 207.601V207.581C384.386 205.653 385.811 204.539 388.331 204.388L391.433 204.197V203.214C391.433 201.879 390.62 201.156 389.004 201.156C387.709 201.156 386.855 201.638 386.574 202.481L386.564 202.511H384.817L384.827 202.451C385.109 200.754 386.755 199.61 389.064 199.61C391.704 199.61 393.18 200.965 393.18 203.214V210.622H391.433V209.026H391.272C390.59 210.181 389.455 210.813 388 210.813ZM386.173 207.56C386.173 208.655 387.106 209.297 388.361 209.297C390.138 209.297 391.433 208.133 391.433 206.587V205.603L388.542 205.784C386.895 205.884 386.173 206.466 386.173 207.54V207.56ZM396.472 210.622V195.504H398.219V210.622H396.472ZM87.5789 239.813C85.1696 239.813 83.5132 238.649 83.3124 236.862H85.0993C85.3905 237.765 86.2538 238.357 87.6391 238.357C89.0948 238.357 90.1288 237.665 90.1288 236.681V236.661C90.1288 235.928 89.5766 235.416 88.2415 235.095L86.565 234.693C84.5372 234.211 83.6236 233.328 83.6236 231.772V231.762C83.6236 229.965 85.3503 228.61 87.6492 228.61C89.918 228.61 91.494 229.744 91.735 231.511H90.0183C89.7875 230.658 88.9442 230.065 87.6391 230.065C86.3542 230.065 85.4105 230.728 85.4105 231.682V231.702C85.4105 232.435 85.9526 232.896 87.2276 233.208L88.894 233.609C90.9319 234.101 91.9157 234.984 91.9157 236.53V236.55C91.9157 238.478 90.0384 239.813 87.5789 239.813ZM98.3706 239.703C96.142 239.703 95.2084 238.879 95.2084 236.811V230.246H93.5018V228.801H95.2084V226H97.0154V228.801H99.3845V230.246H97.0154V236.37C97.0154 237.645 97.4571 238.157 98.5814 238.157C98.8926 238.157 99.0633 238.147 99.3845 238.116V239.602C99.0432 239.662 98.7119 239.703 98.3706 239.703ZM106.251 239.813C103.159 239.813 101.292 237.645 101.292 234.252V234.242C101.292 230.899 103.199 228.61 106.141 228.61C109.082 228.61 110.869 230.798 110.869 234.031V234.713H103.079C103.129 236.952 104.364 238.257 106.291 238.257C107.757 238.257 108.66 237.564 108.951 236.912L108.992 236.821H110.738L110.718 236.902C110.347 238.367 108.801 239.813 106.251 239.813ZM106.131 230.166C104.524 230.166 103.3 231.26 103.109 233.318H109.092C108.911 231.18 107.727 230.166 106.131 230.166ZM113.579 243.236V228.801H115.326V230.527H115.487C116.149 229.323 117.354 228.61 118.86 228.61C121.6 228.61 123.397 230.828 123.397 234.201V234.221C123.397 237.615 121.61 239.813 118.86 239.813C117.374 239.813 116.079 239.07 115.487 237.916H115.326V243.236H113.579ZM118.458 238.267C120.436 238.267 121.61 236.741 121.61 234.221V234.201C121.61 231.682 120.436 230.156 118.458 230.156C116.491 230.156 115.286 231.702 115.286 234.201V234.221C115.286 236.721 116.491 238.267 118.458 238.267ZM129.842 239.813C127.433 239.813 125.777 238.649 125.576 236.862H127.363C127.654 237.765 128.517 238.357 129.902 238.357C131.358 238.357 132.392 237.665 132.392 236.681V236.661C132.392 235.928 131.84 235.416 130.505 235.095L128.828 234.693C126.8 234.211 125.887 233.328 125.887 231.772V231.762C125.887 229.965 127.614 228.61 129.912 228.61C132.181 228.61 133.757 229.744 133.998 231.511H132.282C132.051 230.658 131.207 230.065 129.902 230.065C128.617 230.065 127.674 230.728 127.674 231.682V231.702C127.674 232.435 128.216 232.896 129.491 233.208L131.157 233.609C133.195 234.101 134.179 234.984 134.179 236.53V236.55C134.179 238.478 132.302 239.813 129.842 239.813ZM147.119 239.813C144.037 239.813 142.13 237.685 142.13 234.221V234.201C142.13 230.728 144.037 228.61 147.119 228.61C150.201 228.61 152.108 230.728 152.108 234.201V234.221C152.108 237.685 150.201 239.813 147.119 239.813ZM147.119 238.267C149.167 238.267 150.321 236.771 150.321 234.221V234.201C150.321 231.641 149.167 230.156 147.119 230.156C145.071 230.156 143.917 231.641 143.917 234.201V234.221C143.917 236.771 145.071 238.267 147.119 238.267ZM154.819 239.622V228.801H156.565V230.407H156.726C157.138 229.272 158.152 228.61 159.617 228.61C159.949 228.61 160.32 228.65 160.491 228.68V230.377C160.129 230.316 159.798 230.276 159.416 230.276C157.75 230.276 156.565 231.33 156.565 232.916V239.622H154.819ZM172.858 239.813C169.827 239.813 167.889 237.615 167.889 234.181V234.161C167.889 230.798 169.817 228.61 172.848 228.61C175.479 228.61 177.055 230.126 177.376 232.053L177.386 232.113H175.649L175.639 232.083C175.368 231.019 174.404 230.156 172.848 230.156C170.901 230.156 169.676 231.722 169.676 234.161V234.181C169.676 236.671 170.921 238.267 172.848 238.267C174.304 238.267 175.228 237.625 175.629 236.42L175.649 236.36L177.376 236.35L177.356 236.46C176.914 238.418 175.458 239.813 172.858 239.813ZM184.383 239.813C181.301 239.813 179.394 237.685 179.394 234.221V234.201C179.394 230.728 181.301 228.61 184.383 228.61C187.465 228.61 189.372 230.728 189.372 234.201V234.221C189.372 237.685 187.465 239.813 184.383 239.813ZM184.383 238.267C186.431 238.267 187.585 236.771 187.585 234.221V234.201C187.585 231.641 186.431 230.156 184.383 230.156C182.335 230.156 181.181 231.641 181.181 234.201V234.221C181.181 236.771 182.335 238.267 184.383 238.267ZM192.083 239.622V228.801H193.829V230.427H193.99C194.532 229.282 195.546 228.61 197.142 228.61C199.572 228.61 200.927 230.045 200.927 232.615V239.622H199.18V233.037C199.18 231.089 198.377 230.156 196.65 230.156C194.924 230.156 193.829 231.32 193.829 233.218V239.622H192.083ZM204.089 239.622V228.801H205.836V230.427H205.996C206.539 229.282 207.552 228.61 209.149 228.61C211.578 228.61 212.933 230.045 212.933 232.615V239.622H211.187V233.037C211.187 231.089 210.383 230.156 208.657 230.156C206.93 230.156 205.836 231.32 205.836 233.218V239.622H204.089ZM220.513 239.813C217.421 239.813 215.553 237.645 215.553 234.252V234.242C215.553 230.899 217.461 228.61 220.402 228.61C223.343 228.61 225.13 230.798 225.13 234.031V234.713H217.34C217.39 236.952 218.625 238.257 220.553 238.257C222.018 238.257 222.922 237.564 223.213 236.912L223.253 236.821H225L224.98 236.902C224.608 238.367 223.062 239.813 220.513 239.813ZM220.392 230.166C218.786 230.166 217.561 231.26 217.37 233.318H223.354C223.173 231.18 221.988 230.166 220.392 230.166ZM232.268 239.813C229.236 239.813 227.299 237.615 227.299 234.181V234.161C227.299 230.798 229.226 228.61 232.258 228.61C234.888 228.61 236.464 230.126 236.785 232.053L236.795 232.113H235.059L235.049 232.083C234.778 231.019 233.814 230.156 232.258 230.156C230.31 230.156 229.086 231.722 229.086 234.161V234.181C229.086 236.671 230.33 238.267 232.258 238.267C233.714 238.267 234.637 237.625 235.039 236.42L235.059 236.36L236.785 236.35L236.765 236.46C236.324 238.418 234.868 239.813 232.268 239.813ZM243.391 239.703C241.162 239.703 240.229 238.879 240.229 236.811V230.246H238.522V228.801H240.229V226H242.036V228.801H244.405V230.246H242.036V236.37C242.036 237.645 242.477 238.157 243.602 238.157C243.913 238.157 244.084 238.147 244.405 238.116V239.602C244.064 239.662 243.732 239.703 243.391 239.703ZM253.721 243.417C253.49 243.417 253.189 243.397 252.948 243.357V241.921C253.159 241.961 253.43 241.971 253.671 241.971C254.665 241.971 255.267 241.52 255.658 240.275L255.859 239.632L251.854 228.801H253.721L256.692 237.705H256.853L259.814 228.801H261.652L257.425 240.285C256.532 242.714 255.638 243.417 253.721 243.417ZM268.006 239.813C264.924 239.813 263.017 237.685 263.017 234.221V234.201C263.017 230.728 264.924 228.61 268.006 228.61C271.088 228.61 272.995 230.728 272.995 234.201V234.221C272.995 237.685 271.088 239.813 268.006 239.813ZM268.006 238.267C270.054 238.267 271.208 236.771 271.208 234.221V234.201C271.208 231.641 270.054 230.156 268.006 230.156C265.958 230.156 264.804 231.641 264.804 234.201V234.221C264.804 236.771 265.958 238.267 268.006 238.267ZM279.33 239.813C276.87 239.813 275.605 238.367 275.605 235.808V228.801H277.352V235.386C277.352 237.333 278.055 238.267 279.782 238.267C281.689 238.267 282.703 237.103 282.703 235.205V228.801H284.45V239.622H282.703V238.006H282.542C282.01 239.161 280.916 239.813 279.33 239.813ZM295.583 239.622L292.551 228.801H294.298L296.426 237.454H296.586L299.006 228.801H300.662L303.082 237.454H303.242L305.37 228.801H307.107L304.075 239.622H302.319L299.899 231.25H299.739L297.329 239.622H295.583ZM310.34 226.712C309.677 226.712 309.135 226.17 309.135 225.508C309.135 224.845 309.677 224.303 310.34 224.303C311.002 224.303 311.544 224.845 311.544 225.508C311.544 226.17 311.002 226.712 310.34 226.712ZM309.456 239.622V228.801H311.203V239.622H309.456ZM318.341 239.703C316.112 239.703 315.178 238.879 315.178 236.811V230.246H313.472V228.801H315.178V226H316.985V228.801H319.354V230.246H316.985V236.37C316.985 237.645 317.427 238.157 318.551 238.157C318.863 238.157 319.033 238.147 319.354 238.116V239.602C319.013 239.662 318.682 239.703 318.341 239.703ZM322.065 239.622V224.504H323.812V230.427H323.972C324.514 229.282 325.528 228.61 327.124 228.61C329.554 228.61 330.909 230.045 330.909 232.615V239.622H329.162V233.037C329.162 231.089 328.359 230.156 326.633 230.156C324.906 230.156 323.812 231.32 323.812 233.218V239.622H322.065ZM344.301 239.813C341.219 239.813 339.312 237.685 339.312 234.221V234.201C339.312 230.728 341.219 228.61 344.301 228.61C347.383 228.61 349.29 230.728 349.29 234.201V234.221C349.29 237.685 347.383 239.813 344.301 239.813ZM344.301 238.267C346.349 238.267 347.503 236.771 347.503 234.221V234.201C347.503 231.641 346.349 230.156 344.301 230.156C342.253 230.156 341.098 231.641 341.098 234.201V234.221C341.098 236.771 342.253 238.267 344.301 238.267ZM355.625 239.813C353.165 239.813 351.9 238.367 351.9 235.808V228.801H353.647V235.386C353.647 237.333 354.35 238.267 356.076 238.267C357.984 238.267 358.998 237.103 358.998 235.205V228.801H360.744V239.622H358.998V238.006H358.837C358.305 239.161 357.211 239.813 355.625 239.813ZM364.007 239.622V228.801H365.754V230.407H365.914C366.326 229.272 367.34 228.61 368.806 228.61C369.137 228.61 369.508 228.65 369.679 228.68V230.377C369.318 230.316 368.986 230.276 368.605 230.276C366.938 230.276 365.754 231.33 365.754 232.916V239.622H364.007ZM87.5789 269.813C85.1696 269.813 83.5132 268.649 83.3124 266.862H85.0993C85.3905 267.765 86.2538 268.357 87.6391 268.357C89.0948 268.357 90.1288 267.665 90.1288 266.681V266.661C90.1288 265.928 89.5766 265.416 88.2415 265.095L86.565 264.693C84.5372 264.211 83.6236 263.328 83.6236 261.772V261.762C83.6236 259.965 85.3503 258.61 87.6492 258.61C89.918 258.61 91.494 259.744 91.735 261.511H90.0183C89.7875 260.658 88.9442 260.065 87.6391 260.065C86.3542 260.065 85.4105 260.728 85.4105 261.682V261.702C85.4105 262.435 85.9526 262.896 87.2276 263.208L88.894 263.609C90.9319 264.101 91.9157 264.984 91.9157 266.53V266.55C91.9157 268.478 90.0384 269.813 87.5789 269.813ZM98.2501 269.813C95.7906 269.813 94.5258 268.367 94.5258 265.808V258.801H96.2725V265.386C96.2725 267.333 96.9752 268.267 98.7019 268.267C100.609 268.267 101.623 267.103 101.623 265.205V258.801H103.37V269.622H101.623V268.006H101.463C100.931 269.161 99.8363 269.813 98.2501 269.813ZM106.633 273.236V258.801H108.379V260.527H108.54C109.202 259.323 110.407 258.61 111.913 258.61C114.654 258.61 116.45 260.828 116.45 264.201V264.221C116.45 267.615 114.664 269.813 111.913 269.813C110.427 269.813 109.132 269.07 108.54 267.916H108.379V273.236H106.633ZM111.511 268.267C113.489 268.267 114.664 266.741 114.664 264.221V264.201C114.664 261.682 113.489 260.156 111.511 260.156C109.544 260.156 108.339 261.702 108.339 264.201V264.221C108.339 266.721 109.544 268.267 111.511 268.267ZM119.181 273.236V258.801H120.928V260.527H121.088C121.751 259.323 122.956 258.61 124.461 258.61C127.202 258.61 128.999 260.828 128.999 264.201V264.221C128.999 267.615 127.212 269.813 124.461 269.813C122.976 269.813 121.681 269.07 121.088 267.916H120.928V273.236H119.181ZM124.06 268.267C126.038 268.267 127.212 266.741 127.212 264.221V264.201C127.212 261.682 126.038 260.156 124.06 260.156C122.092 260.156 120.888 261.702 120.888 264.201V264.221C120.888 266.721 122.092 268.267 124.06 268.267ZM136.177 269.813C133.095 269.813 131.187 267.685 131.187 264.221V264.201C131.187 260.728 133.095 258.61 136.177 258.61C139.259 258.61 141.166 260.728 141.166 264.201V264.221C141.166 267.685 139.259 269.813 136.177 269.813ZM136.177 268.267C138.225 268.267 139.379 266.771 139.379 264.221V264.201C139.379 261.641 138.225 260.156 136.177 260.156C134.129 260.156 132.974 261.641 132.974 264.201V264.221C132.974 266.771 134.129 268.267 136.177 268.267ZM143.876 269.622V258.801H145.623V260.407H145.784C146.195 259.272 147.209 258.61 148.675 258.61C149.006 258.61 149.378 258.65 149.548 258.68V260.377C149.187 260.316 148.856 260.276 148.474 260.276C146.808 260.276 145.623 261.33 145.623 262.916V269.622H143.876ZM155.752 269.703C153.524 269.703 152.59 268.879 152.59 266.811V260.246H150.884V258.801H152.59V256H154.397V258.801H156.766V260.246H154.397V266.37C154.397 267.645 154.839 268.157 155.963 268.157C156.274 268.157 156.445 268.147 156.766 268.116V269.602C156.425 269.662 156.094 269.703 155.752 269.703ZM169.004 269.703C166.775 269.703 165.841 268.879 165.841 266.811V260.246H164.135V258.801H165.841V256H167.648V258.801H170.017V260.246H167.648V266.37C167.648 267.645 168.09 268.157 169.214 268.157C169.526 268.157 169.696 268.147 170.017 268.116V269.602C169.676 269.662 169.345 269.703 169.004 269.703ZM176.884 269.813C173.792 269.813 171.925 267.645 171.925 264.252V264.242C171.925 260.899 173.832 258.61 176.774 258.61C179.715 258.61 181.502 260.798 181.502 264.031V264.713H173.712C173.762 266.952 174.997 268.257 176.924 268.257C178.39 268.257 179.293 267.564 179.584 266.912L179.625 266.821H181.371L181.351 266.902C180.98 268.367 179.434 269.813 176.884 269.813ZM176.764 260.166C175.157 260.166 173.933 261.26 173.742 263.318H179.725C179.544 261.18 178.36 260.166 176.764 260.166ZM187.184 269.813C185.126 269.813 183.57 268.568 183.57 266.601V266.581C183.57 264.653 184.995 263.539 187.515 263.388L190.617 263.197V262.214C190.617 260.879 189.804 260.156 188.188 260.156C186.893 260.156 186.039 260.638 185.758 261.481L185.748 261.511H184.001L184.012 261.451C184.293 259.754 185.939 258.61 188.248 258.61C190.888 258.61 192.364 259.965 192.364 262.214V269.622H190.617V268.026H190.456C189.774 269.181 188.639 269.813 187.184 269.813ZM185.357 266.56C185.357 267.655 186.29 268.297 187.545 268.297C189.322 268.297 190.617 267.133 190.617 265.587V264.603L187.726 264.784C186.08 264.884 185.357 265.466 185.357 266.54V266.56ZM195.556 269.622V258.801H197.303V260.447H197.463C197.945 259.282 198.969 258.61 200.385 258.61C201.85 258.61 202.874 259.383 203.376 260.507H203.537C204.119 259.363 205.354 258.61 206.85 258.61C209.058 258.61 210.293 259.875 210.293 262.143V269.622H208.546V262.545C208.546 260.949 207.813 260.156 206.288 260.156C204.782 260.156 203.788 261.29 203.788 262.665V269.622H202.041V262.274C202.041 260.989 201.158 260.156 199.792 260.156C198.377 260.156 197.303 261.391 197.303 262.916V269.622H195.556ZM214.871 269.723C214.158 269.723 213.566 269.13 213.566 268.418C213.566 267.695 214.158 267.113 214.871 267.113C215.594 267.113 216.176 267.695 216.176 268.418C216.176 269.13 215.594 269.723 214.871 269.723ZM228.654 269.964C226.144 269.964 224.729 268.408 224.578 266.33L224.568 266.189H226.375L226.385 266.289C226.496 267.384 227.208 268.297 228.644 268.297C230.25 268.297 231.114 267.344 231.114 265.577V255.136H232.92V265.597C232.92 268.337 231.334 269.964 228.654 269.964ZM240.018 269.813C237.558 269.813 236.294 268.367 236.294 265.808V258.801H238.04V265.386C238.04 267.333 238.743 268.267 240.47 268.267C242.377 268.267 243.391 267.103 243.391 265.205V258.801H245.138V269.622H243.391V268.006H243.23C242.698 269.161 241.604 269.813 240.018 269.813ZM252.115 269.813C249.705 269.813 248.049 268.649 247.848 266.862H249.635C249.926 267.765 250.79 268.357 252.175 268.357C253.631 268.357 254.665 267.665 254.665 266.681V266.661C254.665 265.928 254.112 265.416 252.777 265.095L251.101 264.693C249.073 264.211 248.159 263.328 248.159 261.772V261.762C248.159 259.965 249.886 258.61 252.185 258.61C254.454 258.61 256.03 259.744 256.271 261.511H254.554C254.323 260.658 253.48 260.065 252.175 260.065C250.89 260.065 249.946 260.728 249.946 261.682V261.702C249.946 262.435 250.488 262.896 251.763 263.208L253.43 263.609C255.468 264.101 256.451 264.984 256.451 266.53V266.55C256.451 268.478 254.574 269.813 252.115 269.813ZM262.906 269.703C260.678 269.703 259.744 268.879 259.744 266.811V260.246H258.038V258.801H259.744V256H261.551V258.801H263.92V260.246H261.551V266.37C261.551 267.645 261.993 268.157 263.117 268.157C263.428 268.157 263.599 268.147 263.92 268.116V269.602C263.579 269.662 263.248 269.703 262.906 269.703ZM272.413 269.622V254.504H274.16V269.622H272.413ZM281.93 269.813C278.838 269.813 276.971 267.645 276.971 264.252V264.242C276.971 260.899 278.878 258.61 281.819 258.61C284.761 258.61 286.548 260.798 286.548 264.031V264.713H278.758C278.808 266.952 280.043 268.257 281.97 268.257C283.436 268.257 284.339 267.564 284.63 266.912L284.67 266.821H286.417L286.397 266.902C286.026 268.367 284.48 269.813 281.93 269.813ZM281.809 260.166C280.203 260.166 278.978 261.26 278.788 263.318H284.771C284.59 261.18 283.406 260.166 281.809 260.166ZM293.103 269.703C290.874 269.703 289.941 268.879 289.941 266.811V260.246H288.234V258.801H289.941V256H291.748V258.801H294.117V260.246H291.748V266.37C291.748 267.645 292.19 268.157 293.314 268.157C293.625 268.157 293.796 268.147 294.117 268.116V269.602C293.776 269.662 293.444 269.703 293.103 269.703ZM302.509 269.622V258.801H304.256V260.447H304.417C304.899 259.282 305.923 258.61 307.338 258.61C308.804 258.61 309.828 259.383 310.33 260.507H310.49C311.072 259.363 312.307 258.61 313.803 258.61C316.012 258.61 317.246 259.875 317.246 262.143V269.622H315.5V262.545C315.5 260.949 314.767 260.156 313.241 260.156C311.735 260.156 310.741 261.29 310.741 262.665V269.622H308.994V262.274C308.994 260.989 308.111 260.156 306.746 260.156C305.33 260.156 304.256 261.391 304.256 262.916V269.622H302.509ZM324.816 269.813C321.724 269.813 319.856 267.645 319.856 264.252V264.242C319.856 260.899 321.764 258.61 324.705 258.61C327.647 258.61 329.433 260.798 329.433 264.031V264.713H321.643C321.694 266.952 322.928 268.257 324.856 268.257C326.321 268.257 327.225 267.564 327.516 266.912L327.556 266.821H329.303L329.283 266.902C328.911 268.367 327.365 269.813 324.816 269.813ZM324.695 260.166C323.089 260.166 321.864 261.26 321.673 263.318H327.657C327.476 261.18 326.291 260.166 324.695 260.166ZM83.965 298.622V283.504H85.7117V292.529H85.8723L90.5504 287.801H92.6686L87.9504 292.348L92.9798 298.622H90.7813L86.7256 293.533L85.7117 294.516V298.622H83.965ZM95.0277 298.622V287.801H96.7744V289.427H96.9351C97.4772 288.282 98.4911 287.61 100.087 287.61C102.517 287.61 103.872 289.045 103.872 291.615V298.622H102.125V292.037C102.125 290.089 101.322 289.156 99.5953 289.156C97.8687 289.156 96.7744 290.32 96.7744 292.218V298.622H95.0277ZM111.481 298.813C108.399 298.813 106.492 296.685 106.492 293.221V293.201C106.492 289.728 108.399 287.61 111.481 287.61C114.563 287.61 116.471 289.728 116.471 293.201V293.221C116.471 296.685 114.563 298.813 111.481 298.813ZM111.481 297.267C113.529 297.267 114.684 295.771 114.684 293.221V293.201C114.684 290.641 113.529 289.156 111.481 289.156C109.433 289.156 108.279 290.641 108.279 293.201V293.221C108.279 295.771 109.433 297.267 111.481 297.267ZM120.868 298.622L117.836 287.801H119.583L121.711 296.454H121.871L124.291 287.801H125.947L128.367 296.454H128.527L130.655 287.801H132.392L129.36 298.622H127.604L125.184 290.25H125.024L122.614 298.622H120.868ZM135.434 293.804L135.263 284.126H137.271L137.1 293.804H135.434ZM136.277 298.803C135.464 298.803 134.882 298.221 134.882 297.408C134.882 296.584 135.464 296.002 136.277 296.002C137.09 296.002 137.662 296.584 137.662 297.408C137.662 298.221 137.09 298.803 136.277 298.803ZM141.096 289.848L141.969 284.136H143.967L142.391 289.848H141.096ZM144.429 289.848L145.302 284.136H147.3L145.724 289.848H144.429Z" fill="white" style="fill:white;fill-opacity:1;"></path>
<path d="M69.7866 342.245L65.209 329.828H66.8352L70.4836 340.24H70.6213L74.2697 329.828H75.896L71.3183 342.245H69.7866ZM78.6753 331.179C78.1074 331.179 77.6427 330.714 77.6427 330.146C77.6427 329.579 78.1074 329.114 78.6753 329.114C79.2432 329.114 79.7078 329.579 79.7078 330.146C79.7078 330.714 79.2432 331.179 78.6753 331.179ZM77.9181 342.245V332.969H79.4153V342.245H77.9181ZM86.0237 342.408C83.3734 342.408 81.773 340.55 81.773 337.641V337.633C81.773 334.767 83.4078 332.805 85.929 332.805C88.4502 332.805 89.9818 334.681 89.9818 337.452V338.037H83.3046C83.3476 339.956 84.406 341.074 86.0581 341.074C87.3144 341.074 88.0888 340.481 88.3383 339.921L88.3727 339.844H89.87L89.8528 339.913C89.5344 341.169 88.2093 342.408 86.0237 342.408ZM85.9204 334.139C84.5437 334.139 83.4939 335.077 83.3304 336.841H88.4588C88.3039 335.008 87.2886 334.139 85.9204 334.139ZM94.0949 342.245L91.4962 332.969H92.9935L94.8177 340.386H94.9553L97.0291 332.969H98.4488L100.523 340.386H100.66L102.484 332.969H103.973L101.374 342.245H99.8686L97.7949 335.068H97.6572L95.5921 342.245H94.0949ZM110.908 342.245V332.969H112.406V334.346H112.543C112.896 333.373 113.765 332.805 115.021 332.805C115.305 332.805 115.624 332.84 115.77 332.866V334.32C115.46 334.268 115.176 334.234 114.849 334.234C113.421 334.234 112.406 335.137 112.406 336.497V342.245H110.908ZM121.148 342.408C118.498 342.408 116.897 340.55 116.897 337.641V337.633C116.897 334.767 118.532 332.805 121.053 332.805C123.574 332.805 125.106 334.681 125.106 337.452V338.037H118.429C118.472 339.956 119.53 341.074 121.182 341.074C122.439 341.074 123.213 340.481 123.463 339.921L123.497 339.844H124.994L124.977 339.913C124.659 341.169 123.334 342.408 121.148 342.408ZM121.045 334.139C119.668 334.139 118.618 335.077 118.455 336.841H123.583C123.428 335.008 122.413 334.139 121.045 334.139ZM128.049 342.245V334.208H126.509V332.969H128.049V331.936C128.049 330.086 128.978 329.2 130.742 329.2C131.104 329.2 131.431 329.226 131.74 329.286V330.482C131.56 330.448 131.31 330.439 131.043 330.439C129.976 330.439 129.546 330.964 129.546 331.979V332.969H131.654V334.208H129.546V342.245H128.049ZM137.204 342.408C134.554 342.408 132.954 340.55 132.954 337.641V337.633C132.954 334.767 134.588 332.805 137.11 332.805C139.631 332.805 141.162 334.681 141.162 337.452V338.037H134.485C134.528 339.956 135.587 341.074 137.239 341.074C138.495 341.074 139.269 340.481 139.519 339.921L139.553 339.844H141.051L141.033 339.913C140.715 341.169 139.39 342.408 137.204 342.408ZM137.101 334.139C135.724 334.139 134.675 335.077 134.511 336.841H139.639C139.485 335.008 138.469 334.139 137.101 334.139ZM143.486 342.245V332.969H144.983V334.346H145.121C145.473 333.373 146.342 332.805 147.599 332.805C147.883 332.805 148.201 332.84 148.347 332.866V334.32C148.038 334.268 147.754 334.234 147.427 334.234C145.998 334.234 144.983 335.137 144.983 336.497V342.245H143.486ZM153.725 342.408C151.075 342.408 149.475 340.55 149.475 337.641V337.633C149.475 334.767 151.109 332.805 153.631 332.805C156.152 332.805 157.683 334.681 157.683 337.452V338.037H151.006C151.049 339.956 152.108 341.074 153.76 341.074C155.016 341.074 155.79 340.481 156.04 339.921L156.074 339.844H157.572L157.554 339.913C157.236 341.169 155.911 342.408 153.725 342.408ZM153.622 334.139C152.245 334.139 151.195 335.077 151.032 336.841H156.16C156.006 335.008 154.99 334.139 153.622 334.139ZM160.007 342.245V332.969H161.504V334.363H161.642C162.106 333.382 162.975 332.805 164.343 332.805C166.426 332.805 167.587 334.036 167.587 336.239V342.245H166.09V336.6C166.09 334.931 165.402 334.13 163.922 334.13C162.442 334.13 161.504 335.129 161.504 336.755V342.245H160.007ZM174.093 342.408C171.494 342.408 169.833 340.524 169.833 337.581V337.564C169.833 334.681 171.485 332.805 174.084 332.805C176.338 332.805 177.689 334.105 177.965 335.757L177.973 335.808H176.485L176.476 335.783C176.244 334.87 175.418 334.13 174.084 334.13C172.415 334.13 171.365 335.473 171.365 337.564V337.581C171.365 339.715 172.432 341.083 174.084 341.083C175.332 341.083 176.123 340.532 176.467 339.5L176.485 339.448L177.965 339.44L177.947 339.534C177.569 341.212 176.321 342.408 174.093 342.408ZM183.945 342.408C181.295 342.408 179.694 340.55 179.694 337.641V337.633C179.694 334.767 181.329 332.805 183.85 332.805C186.371 332.805 187.903 334.681 187.903 337.452V338.037H181.226C181.269 339.956 182.327 341.074 183.979 341.074C185.236 341.074 186.01 340.481 186.26 339.921L186.294 339.844H187.791L187.774 339.913C187.456 341.169 186.13 342.408 183.945 342.408ZM183.842 334.139C182.465 334.139 181.415 335.077 181.252 336.841H186.38C186.225 335.008 185.21 334.139 183.842 334.139Z" fill="white" fill-opacity="0.6" style="fill:white;fill-opacity:0.6;"></path>
<path d="M64.6152 345.428H188.832V346.461H64.6152V345.428Z" fill="white" fill-opacity="0.6" style="fill:white;fill-opacity:0.6;"></path>
<defs>
<radialGradient id="paint0_angular_4254_131246" cx="0" cy="0" r="1" gradientUnits="userSpaceOnUse" gradientTransform="translate(23.4965 324.748) rotate(90) scale(23.4965 23.4427)">
<stop offset="0.118131" stop-color="#4CFCBC" style="stop-color:#4CFCBC;stop-color:color(display-p3 0.2968 0.9866 0.7382);stop-opacity:1;"></stop>
<stop offset="0.333333" stop-color="#C477FD" style="stop-color:#C477FD;stop-color:color(display-p3 0.7685 0.4662 0.9921);stop-opacity:1;"></stop>
<stop offset="0.666667" stop-color="#1538FD" style="stop-color:#1538FD;stop-color:color(display-p3 0.0827 0.2211 0.9923);stop-opacity:1;"></stop>
<stop offset="0.906646" stop-color="#04C9FF" style="stop-color:#04C9FF;stop-color:color(display-p3 0.0167 0.7898 1.0000);stop-opacity:1;"></stop>
</radialGradient>
</defs>
</svg>
